<svg xmlns="http://www.w3.org/2000/svg" xmlns:xlink="http://www.w3.org/1999/xlink" viewBox="0 0 651.43 1010.54"><defs><style>.cls-1{fill:none;}.cls-2{fill:#d6dbe8;}.cls-3{fill:#dedefc;}.cls-4{fill:#c8c8f9;}.cls-5{fill:#6f6ff0;}.cls-6{fill:#c1c1f9;}.cls-7{fill:#c6c6fa;}.cls-8{fill:#dbdbfa;}.cls-9{clip-path:url(#clip-path);}.cls-10{fill:#cacaf8;}.cls-11{fill:#e3e3fb;}.cls-12{fill:#fac300;}.cls-13{fill:#d0a200;}.cls-14{fill:#a36fff;}.cls-15{fill:#ba93ff;}.cls-16{fill:#8038ff;}.cls-17{fill:#bfbff8;}.cls-18{fill:#d7d7fb;}.cls-19{fill:#f1f7ff;}.cls-20{fill:#e9e9fc;}.cls-21{fill:#b7b7f7;}.cls-22{fill:#cdd6f3;}.cls-23{fill:#aabaeb;}.cls-24{fill:#2f302f;}.cls-25{fill:#494a4a;}.cls-26{fill:#979696;}.cls-27{fill:#fff;}.cls-28{fill:#383838;}.cls-29{fill:#5454ee;}.cls-30{fill:url(#linear-gradient);}.cls-31{fill:#8888f3;}.cls-32{fill:url(#linear-gradient-2);}.cls-33{fill:#4040ec;}.cls-34{fill:#7272f1;}.cls-35{fill:#4f56ff;}.cls-36{fill:#9ca0ff;}.cls-37{fill:#2b1e7d;}.cls-38{fill:#3400cc;}.cls-39{fill:#d5d5fb;}.cls-40{fill:#a9a9f6;}.cls-41{fill:#402cbc;}.cls-42{fill:#fbc3b2;}.cls-43{fill:#fab5a1;}.cls-44{fill:#f5f5fe;}.cls-45{fill:#292929;}.cls-46{fill:#fab09a;}.cls-47{fill:#e9e9fd;}.cls-48{fill:#081d31;}.cls-49{fill:#fafcff;}.cls-50{fill:#49271b;}.cls-51{fill:#00215f;}.cls-52{fill:#d0e7ff;}</style><clipPath id="clip-path"><path class="cls-1" d="M310.42.71a6.14,6.14,0,0,1,6.29.35l307,177.07c4.58,2.64,7.7,9.4,7,15.09l-35,269c-.37,2.83-1.63,4.86-3.37,5.87h0l-.46.23-9.45,4.85.26-7.38L279,290.63c-4.59-2.65-7.71-9.41-7-15.1L306.55,10.47l-5.61-4.91L310.42.71Z"/></clipPath><linearGradient id="linear-gradient" x1="554.97" y1="884.29" x2="558.23" y2="885.88" gradientTransform="matrix(4.84, 2.85, 0.04, -5.79, -2518.32, 4446.79)" gradientUnits="userSpaceOnUse"><stop offset="0" stop-color="#260096"/><stop offset="0.57" stop-color="#8800df"/><stop offset="1" stop-color="#b300ff"/></linearGradient><linearGradient id="linear-gradient-2" x1="963.52" y1="1084.94" x2="966.79" y2="1086.56" gradientTransform="matrix(-4.88, 2.83, 0.04, -5.79, 4782.19, 4463.88)" xlink:href="#linear-gradient"/></defs><title>Asset 15</title><g id="Layer_2" data-name="Layer 2"><g id="Layer_1-2" data-name="Layer 1"><path class="cls-2" d="M482.38,888.11c-3.1,1.79-7.78,2-10.46.44l-343-198c-2.68-1.55-2.34-4.26.75-6l146.43-84.54c3.1-1.79,7.79-2,10.47-.43l343,198c2.68,1.55,2.35,4.25-.75,6L482.38,888.11Z"/><path class="cls-3" d="M187.51,430.66,174.16,423V715.3L187.51,723Z"/><path class="cls-4" d="M293.19,369.65l-105.68,61V723l105.68-61Z"/><path class="cls-5" d="M232.33,337.21,527.5,507.62V747.13L232.33,576.72Z"/><path class="cls-3" d="M474.22,580.49,634.42,488V780.35l-160.2,92.49Z"/><path class="cls-4" d="M464.16,574.68l10.06,5.81V872.84L464.16,867Z"/><path class="cls-6" d="M651.4,481.9c.2,2.79-1.38,5.48-4.81,7.46l-178.43,103c-7.16,4.14-19.68,3.62-28-1.15L139.38,417.53c-4.68-2.7-7-6.2-6.83-9.47h0V388.53l13.25,7.65v.35l170-98.15c7.15-4.13,19.68-3.62,27.94,1.16L638.6,469.77l12.82-7.41v19.53Z"/><path class="cls-3" d="M440.93,572.09c7.42,4.29,18.66,4.75,25.08,1L647.09,468.59c6.43-3.71,5.62-10.2-1.8-14.49L343,279.57c-7.42-4.28-18.66-4.75-25.08-1L136.83,383.08c-6.42,3.71-5.62,10.2,1.8,14.48Z"/><path class="cls-7" d="M526.08,474.44c4.73,2.73,11.89,3,16,.66L551,470c4.1-2.37,3.58-6.51-1.15-9.24L315.56,325.49c-4.73-2.73-11.89-3-16-.66L290.68,330c-4.1,2.37-3.58,6.5,1.15,9.24Z"/><path class="cls-8" d="M310.42.71a6.14,6.14,0,0,1,6.29.35l307,177.07c4.58,2.64,7.7,9.4,7,15.09l-35,269c-.37,2.83-1.63,4.86-3.37,5.87h0l-.46.23-9.45,4.85.26-7.38L279,290.63c-4.59-2.65-7.71-9.41-7-15.1L306.55,10.47l-5.61-4.91L310.42.71Z"/><g class="cls-9"><path class="cls-10" d="M631.91,198.05,616.76,204,582.35,473l15.15-6Z"/></g><path class="cls-11" d="M620.76,198.3c.74-5.68-2.38-12.44-7-15.09L306.8,6.15c-4.59-2.65-8.92-.18-9.66,5.5l-35.06,269c-.74,5.69,2.39,12.45,7,15.1l307,177.06c4.59,2.65,8.91.18,9.65-5.51Z"/><path class="cls-12" d="M617.6,199.11c.73-5.63-2.37-12.33-6.91-15L306.39,8.65c-4.54-2.63-8.83-.18-9.57,5.46L262.07,280.7c-.73,5.64,2.36,12.34,6.91,15l304.3,175.51c4.55,2.63,8.83.18,9.57-5.46Z"/><path id="screen9" class="cls-13" d="M534.05,137l68.08,42.22L575.49,381.56c-1.79,13.65-11.91,19.33-22.57,12.66L521.53,377c-10.66-6.66-17.86-23.16-16.06-36.81Z"/><g id="progress-window3"><path id="screen10" class="cls-14" d="M546.64,408.31c4.19-2.25,7.25-7.12,8.16-14.06L593.8,98c1.79-13.65-5.4-30.15-16.07-36.81L548.3,43.15c-5.39-3.37-10.64-3.58-14.74-1.22L515.73,51.5,519.67,54a25.56,25.56,0,0,0-1.45,5.88l-40.94,297.1c-1.8,13.65,5.4,30.15,16.06,36.81l31.38,17.19a20,20,0,0,0,4.14,2l-.7,5.29,18.48-9.91Z"/><path id="screen11" class="cls-15" d="M534.2,41.59l-18.47,9.92L519.67,54a25.47,25.47,0,0,0-1.45,5.87l-.48,3.5L570,96l22.79-12.23c-2.41-9.36-8-18.1-15-22.52L548.3,43.15c-5.11-3.19-10.1-3.55-14.1-1.56Z"/><path id="screen12" class="cls-16" d="M559.26,71.14C569.92,77.8,577.12,94.3,575.32,108l-39,296.22c-1.79,13.65-11.91,19.33-22.57,12.66l-31.39-17.19C471.7,393,464.5,376.49,466.3,362.83l40.94-297.1c1.8-13.65,11.92-19.33,22.58-12.66l29.44,18.07Z"/><path class="cls-8" d="M546.84,134.94l-34.1-15.46,18.69,24.7,4.4,25.89,11-35.13Z"/><path class="cls-8" d="M535.77,224.42c0,.34-.19.44-.43.29s-.62-1.3-.71-3.18a21.89,21.89,0,0,0-1.7-8.43,13.11,13.11,0,0,0-5-5.13,28,28,0,0,0-2.46-1.4l-5.14,39.48a3.7,3.7,0,0,0,.45,2.53,18.69,18.69,0,0,0,3.54,3,1,1,0,0,1,.49,1c-.06.43-.36.47-.92.13l-.77-.56q-.77-.56-1.29-.87l-5.32-3.54-8.85-5.32c-.48-.3-.7-.63-.66-1s.12-.37.27-.33.72.36,1.73.95c1.91,1.1,3,1.17,3.28.22q.22-.78,1.84-13.11l3.62-27.44c-.38-.28-.83-.58-1.35-.91q-4.14-2.6-6.3-1.86t-3.35,5.24c-.5,1.75-.93,2.5-1.32,2.27a1,1,0,0,1-.36-1.07c.05-.35.27-1.5.68-3.44.83-4.07,1.39-6.86,1.66-8.37l.78.49,3.8,2.3,3.59,2.38q3.43,2.29,8.78,5.63c2,1.23,3.74,2.31,5.31,3.25s3,1.79,4.26,2.59a25.47,25.47,0,0,0,2.62,1.49q-.4,4.32-.64,11.26c0,.78-.06,1.25-.08,1.43Z"/><path class="cls-8" d="M529.51,300.78a1.26,1.26,0,0,0-.56-1.27l-35-21.89a1.43,1.43,0,0,0-1.47,0,1.74,1.74,0,0,0-.9,1.26l-5.76,43.79a1.26,1.26,0,0,0,.56,1.27l35.05,21.9a1.46,1.46,0,0,0,1.46,0,1.76,1.76,0,0,0,.9-1.27Zm-40.69,21.05L521.15,342l5.32-40.42-32.33-20.2Z"/></g><path class="cls-17" d="M304.53,392.83c-4.7-2.71-11.82-3-15.89-.66L236,422.41c-4.07,2.35-3.56,6.46,1.14,9.18l108.23,62.48c4.7,2.72,11.81,3,15.88.66l52.64-30.24c4.07-2.35,3.56-6.46-1.14-9.17Z"/><path class="cls-18" d="M238.7,420.51l50.81-32.17c4.07-2.35,11.19-2.06,15.89.65l83.2,51,22.55,13,6.36,2.14v1.68h0a4.79,4.79,0,0,1-2.75,3.79l-52.63,30.24c-4.07,2.35-11.19,2.06-15.89-.66L238,427.75c-2.84-1.64-3.82-3.67-3.84-5.77h0v-1.15l4.53-.32Z"/><path class="cls-19" d="M305.43,387c-4.7-2.72-11.82-3-15.89-.66l-52.63,30.24c-4.07,2.35-3.56,6.46,1.14,9.17l108.23,62.48c4.7,2.72,11.82,3,15.89.66l52.63-30.24c4.07-2.35,3.56-6.46-1.14-9.17L305.43,387Z"/><path class="cls-20" d="M304.7,387.47c-4.11-2.37-10.32-2.63-13.88-.58l-52.95,30.42c-3.55,2.06-3.1,5.65,1,8L347,487.76c4.11,2.37,10.33,2.63,13.88.58l52.95-30.43c3.55-2.05,3.11-5.64-1-8Z"/><path class="cls-21" d="M341.05,478.28a.6.6,0,0,1,.35-.57l4.79-2.77a2.33,2.33,0,0,1,2.07.09l5.53,3.19c.36.21.53.49.49.74v.68h0a.58.58,0,0,1-.35.62L349.15,483a2.33,2.33,0,0,1-2.07-.09l-5.53-3.19a.92.92,0,0,1-.5-.61h0v-.86ZM357,476a.61.61,0,0,1,.36-.57l4.78-2.76a2.3,2.3,0,0,1,2.07.09l5.52,3.19c.37.21.54.49.5.74v.68h0a.58.58,0,0,1-.35.62l-4.78,2.76a2.3,2.3,0,0,1-2.07-.08l-5.53-3.19a.94.94,0,0,1-.5-.61h0V476Zm-26.6-3.88a.62.62,0,0,1,.36-.57l4.78-2.76a2.33,2.33,0,0,1,2.07.08l5.53,3.2c.36.21.53.49.49.74v.68h0a.57.57,0,0,1-.35.62l-4.78,2.76a2.3,2.3,0,0,1-2.07-.08l-5.52-3.19a1,1,0,0,1-.51-.61h0v-.87Zm16-2.23a.62.62,0,0,1,.36-.58l4.78-2.76a2.3,2.3,0,0,1,2.07.09l5.53,3.19a.82.82,0,0,1,.5.75v.67h0a.57.57,0,0,1-.35.62l-4.78,2.76a2.3,2.3,0,0,1-2.07-.08l-5.52-3.19a.92.92,0,0,1-.5-.61h0v-.85Zm14.66-3.18a.59.59,0,0,1,.35-.57l4.79-2.77a2.31,2.31,0,0,1,2.06.09l5.53,3.19c.37.21.54.5.5.75v.67h0a.59.59,0,0,1-.35.62l-4.79,2.77a2.31,2.31,0,0,1-2.06-.09l-5.53-3.19a.9.9,0,0,1-.5-.6h0v-.87Zm-41.2-.68a.61.61,0,0,1,.35-.57l4.79-2.76a2.31,2.31,0,0,1,2.06.09L332.6,466c.37.21.54.49.5.74v.68h0a.59.59,0,0,1-.35.62L328,470.8a2.31,2.31,0,0,1-2.06-.09l-5.53-3.19a.92.92,0,0,1-.5-.6h0V466ZM377,464.46a.58.58,0,0,1,.35-.57l4.79-2.77a2.31,2.31,0,0,1,2.06.09l5.53,3.19c.37.21.54.49.5.75v.67h0a.57.57,0,0,1-.34.62l-4.79,2.77a2.28,2.28,0,0,1-2.06-.09l-5.53-3.19a.9.9,0,0,1-.5-.6h0v0a.14.14,0,0,1,0-.09Zm-41.26-.71a.61.61,0,0,1,.36-.57l4.79-2.76a2.28,2.28,0,0,1,2.06.09l5.53,3.19c.36.21.54.49.5.74v.67h0a.57.57,0,0,1-.35.62l-4.78,2.76a2.3,2.3,0,0,1-2.07-.08l-5.52-3.19a.92.92,0,0,1-.5-.61h0v-.87Zm14.66-3.17a.59.59,0,0,1,.35-.57l4.79-2.77a2.33,2.33,0,0,1,2.07.09l5.52,3.19c.37.21.54.49.5.75v.67h0a.58.58,0,0,1-.35.62l-4.78,2.77a2.33,2.33,0,0,1-2.07-.09l-5.53-3.19a.92.92,0,0,1-.5-.6h0v-.86Zm-41.2-.68a.61.61,0,0,1,.36-.57l4.78-2.76a2.33,2.33,0,0,1,2.07.08l5.52,3.2c.37.21.54.49.5.74v.68h0a.58.58,0,0,1-.35.62l-4.78,2.76a2.3,2.3,0,0,1-2.07-.08l-5.53-3.19a.94.94,0,0,1-.5-.61h0v-.87Zm57.2-1.56a.6.6,0,0,1,.35-.57l4.79-2.77a2.33,2.33,0,0,1,2.07.09l5.52,3.19c.37.22.54.49.5.75v.67h0a.58.58,0,0,1-.35.62l-4.79,2.77a2.28,2.28,0,0,1-2.06-.09l-5.53-3.19a.9.9,0,0,1-.5-.6h0v-.87Zm-41.2-.68a.59.59,0,0,1,.36-.57l4.78-2.76a2.33,2.33,0,0,1,2.07.09l5.52,3.19c.37.21.54.49.5.74V459h0a.58.58,0,0,1-.35.62l-4.79,2.76a2.28,2.28,0,0,1-2.06-.08l-5.53-3.19a.92.92,0,0,1-.5-.61h0v-.87ZM381,455.23a.58.58,0,0,1,.35-.56l4.79-2.77a2.31,2.31,0,0,1,2.06.09l5.53,3.19c.37.21.54.49.5.74v.68h0a.59.59,0,0,1-.35.62L389.05,460a2.31,2.31,0,0,1-2.06-.09l-5.53-3.19a.92.92,0,0,1-.5-.6h0v0a.17.17,0,0,1,0-.1v-.75Zm-41.07-.74a.57.57,0,0,1,.35-.57l4.79-2.76a2.28,2.28,0,0,1,2.06.08l5.53,3.19c.37.21.54.49.5.75v.67h0a.59.59,0,0,1-.34.63L348,459.24a2.31,2.31,0,0,1-2.06-.09L340.39,456a.9.9,0,0,1-.5-.6h0v0a.17.17,0,0,1,0-.1v-.75Zm-41.26-.71a.62.62,0,0,1,.36-.57l4.78-2.76a2.3,2.3,0,0,1,2.07.09l5.53,3.19c.36.21.53.49.49.75v.67h0a.57.57,0,0,1-.35.62l-4.78,2.76a2.3,2.3,0,0,1-2.07-.08l-5.52-3.19a.92.92,0,0,1-.5-.61h0v-.87Zm98.29-.81a.6.6,0,0,1,.35-.57l4.79-2.76a2.25,2.25,0,0,1,2.06.09l5.53,3.19c.37.21.54.49.5.74v.67h0a.57.57,0,0,1-.34.62L405,457.72a2.28,2.28,0,0,1-2.06-.08l-5.53-3.19a.94.94,0,0,1-.5-.61h0v0a.17.17,0,0,1,0-.1V453Zm-41.13-.78a.6.6,0,0,1,.35-.56l4.79-2.77A2.3,2.3,0,0,1,363,449l5.52,3.19c.37.21.54.49.5.75v.67h0a.58.58,0,0,1-.35.62l-4.78,2.76a2.3,2.3,0,0,1-2.07-.08l-5.53-3.19a.89.89,0,0,1-.5-.61h0v-.85Zm-41.2-.67A.61.61,0,0,1,315,451l4.78-2.76a2.27,2.27,0,0,1,2.07.09l5.52,3.19c.37.21.54.49.51.74v.68h0a.58.58,0,0,1-.35.62l-4.78,2.76a2.3,2.3,0,0,1-2.07-.08L315.09,453a.92.92,0,0,1-.5-.61h0v-.87Zm55.73-2.43a.6.6,0,0,1,.35-.57l4.79-2.76a2.3,2.3,0,0,1,2.07.08l5.52,3.2c.37.21.54.49.5.74v.67h0a.59.59,0,0,1-.35.62l-4.78,2.76a2.3,2.3,0,0,1-2.07-.08l-5.53-3.19a.94.94,0,0,1-.5-.61h0v-.87Zm-41.07-.74a.57.57,0,0,1,.35-.57l4.79-2.77a2.31,2.31,0,0,1,2.06.09l5.53,3.19c.37.21.54.49.5.75v.67h0a.59.59,0,0,1-.35.62l-4.79,2.76a2.28,2.28,0,0,1-2.06-.08l-5.53-3.19a.92.92,0,0,1-.5-.6h0v0a.14.14,0,0,1,0-.09v-.75ZM288,447.64a.61.61,0,0,1,.36-.57l4.78-2.76a2.27,2.27,0,0,1,2.07.09l5.53,3.19c.36.21.54.49.5.74V449h0a.57.57,0,0,1-.35.62l-4.78,2.76a2.3,2.3,0,0,1-2.07-.08l-5.52-3.2a.88.88,0,0,1-.5-.6h0v-.87Zm98.33-.79a.6.6,0,0,1,.35-.57l4.79-2.76a2.28,2.28,0,0,1,2.06.09l5.53,3.19c.37.21.54.49.5.74v.67h0a.58.58,0,0,1-.35.62l-4.78,2.76a2.3,2.3,0,0,1-2.07-.08l-5.53-3.19a.92.92,0,0,1-.5-.61h0v-.86Zm-41.07-.74a.58.58,0,0,1,.35-.57l4.79-2.77a2.31,2.31,0,0,1,2.06.09l5.53,3.19c.37.21.54.49.5.75v.67h0a.57.57,0,0,1-.34.62l-4.79,2.77a2.28,2.28,0,0,1-2.06-.09l-5.53-3.19a.9.9,0,0,1-.5-.6h0v0a.17.17,0,0,1,0-.1ZM304,445.4a.6.6,0,0,1,.36-.56l4.78-2.77a2.3,2.3,0,0,1,2.07.09l5.53,3.19c.36.21.54.49.5.74v.68h0a.57.57,0,0,1-.35.62l-4.78,2.77a2.33,2.33,0,0,1-2.07-.09l-5.52-3.19a.92.92,0,0,1-.5-.61h0v-.87Zm55.79-2.4a.57.57,0,0,1,.35-.56l4.79-2.77a2.31,2.31,0,0,1,2.06.09l5.53,3.19c.37.21.54.49.5.74v.68h0a.57.57,0,0,1-.34.62l-4.79,2.77a2.31,2.31,0,0,1-2.06-.09l-5.53-3.19a.92.92,0,0,1-.5-.6h0V443Zm-41.13-.77a.59.59,0,0,1,.35-.57l4.79-2.77a2.33,2.33,0,0,1,2.07.09l5.52,3.19c.37.22.54.49.5.75v.67h0a.58.58,0,0,1-.35.62L326.74,447a2.31,2.31,0,0,1-2.06-.09l-5.53-3.19a.9.9,0,0,1-.5-.6h0v-.87Zm-41.13-.64a.58.58,0,0,1,.35-.56l4.79-2.77a2.28,2.28,0,0,1,2.06.09l5.53,3.19c.37.21.54.49.5.74V443h0a.59.59,0,0,1-.35.62l-4.79,2.76a2.28,2.28,0,0,1-2.06-.08l-5.53-3.2a.88.88,0,0,1-.5-.6h0v0a.17.17,0,0,1,0-.1v-.75Zm98.16-.88a.59.59,0,0,1,.36-.57l4.78-2.76a2.3,2.3,0,0,1,2.07.09l5.52,3.19c.37.21.54.49.5.74v.67h0a.58.58,0,0,1-.35.62l-4.78,2.76a2.3,2.3,0,0,1-2.07-.08l-5.53-3.2a.9.9,0,0,1-.5-.6h0v-.87ZM334.61,440a.58.58,0,0,1,.35-.56l4.79-2.77a2.31,2.31,0,0,1,2.06.09l5.53,3.19c.37.21.54.49.5.75v.67h0a.59.59,0,0,1-.35.62l-4.79,2.76a2.28,2.28,0,0,1-2.06-.08l-5.53-3.19a.89.89,0,0,1-.5-.61h0V440Zm-41.25-.7a.58.58,0,0,1,.35-.57l4.79-2.76a2.28,2.28,0,0,1,2.06.08l5.53,3.2c.37.21.54.49.5.74v.67h0a.57.57,0,0,1-.34.62L301.45,444a2.3,2.3,0,0,1-2.07-.08l-5.52-3.19a.94.94,0,0,1-.5-.61h0v0a.17.17,0,0,1,0-.1v-.75Zm55.78-2.4a.6.6,0,0,1,.35-.57l4.79-2.76a2.28,2.28,0,0,1,2.06.08l5.53,3.2c.37.21.54.49.5.74v.67h0a.57.57,0,0,1-.34.62l-4.79,2.76a2.28,2.28,0,0,1-2.06-.08l-5.53-3.19a.94.94,0,0,1-.5-.61h0v0a.17.17,0,0,1,0-.1ZM308,436.08a.58.58,0,0,1,.35-.56l4.79-2.77a2.3,2.3,0,0,1,2.07.09l5.52,3.19c.37.21.54.49.5.75v.67h0a.58.58,0,0,1-.35.62l-4.78,2.76a2.3,2.3,0,0,1-2.07-.08l-5.53-3.19a.89.89,0,0,1-.5-.61h0v-.87Zm-41.13-.63a.6.6,0,0,1,.35-.57l4.79-2.76a2.3,2.3,0,0,1,2.07.08l5.52,3.19c.37.22.54.5.5.75v.67h0a.61.61,0,0,1-.35.63L275,440.2a2.28,2.28,0,0,1-2.06-.08l-5.53-3.2a.9.9,0,0,1-.5-.6h0v0a.17.17,0,0,1,0-.1v-.75Zm98.26-.82a.6.6,0,0,1,.35-.58l4.79-2.76a2.31,2.31,0,0,1,2.06.09l5.53,3.19c.37.21.54.49.5.74V436h0a.57.57,0,0,1-.34.62l-4.79,2.76a2.28,2.28,0,0,1-2.06-.08l-5.53-3.19a.92.92,0,0,1-.5-.6h0v0a.17.17,0,0,1,0-.1v-.74ZM324,433.85a.58.58,0,0,1,.36-.57l4.78-2.76a2.3,2.3,0,0,1,2.07.08l5.52,3.19c.37.21.54.49.5.75v.67h0a.58.58,0,0,1-.35.62l-4.78,2.77a2.33,2.33,0,0,1-2.07-.09l-5.53-3.19a.9.9,0,0,1-.5-.6h0v-.85Zm-41.13-.64a.6.6,0,0,1,.35-.57l4.79-2.76a2.3,2.3,0,0,1,2.07.09l5.52,3.19c.37.21.54.49.5.74v.67h0a.59.59,0,0,1-.35.62L291,438a2.28,2.28,0,0,1-2.06-.08l-5.53-3.19a.94.94,0,0,1-.5-.61h0v-.87Zm55.66-2.47a.6.6,0,0,1,.35-.57l4.79-2.76a2.28,2.28,0,0,1,2.06.09l5.53,3.19c.37.21.54.49.5.74v.67h0a.58.58,0,0,1-.35.62l-4.79,2.76a2.28,2.28,0,0,1-2.06-.08L339,432.22a.92.92,0,0,1-.5-.61h0v-.87Zm-41-.7a.6.6,0,0,1,.36-.57l4.79-2.77a2.31,2.31,0,0,1,2.06.09l5.53,3.19c.37.21.54.49.5.75v.67h0a.57.57,0,0,1-.35.62l-4.78,2.77a2.33,2.33,0,0,1-2.07-.09L298,431.51a.89.89,0,0,1-.5-.61h0V430Zm-41.25-.71a.61.61,0,0,1,.36-.57l4.78-2.76a2.27,2.27,0,0,1,2.07.09l5.52,3.19c.37.21.54.49.51.74v.67h0a.58.58,0,0,1-.35.62l-4.78,2.76a2.3,2.3,0,0,1-2.07-.08l-5.53-3.19a1,1,0,0,1-.5-.61h0v-.87Zm98.22-.85a.61.61,0,0,1,.35-.57l4.79-2.76a2.31,2.31,0,0,1,2.06.08l5.53,3.2c.37.21.54.49.5.74v.68h0a.58.58,0,0,1-.35.62l-4.79,2.76a2.28,2.28,0,0,1-2.06-.08L355,430a.94.94,0,0,1-.5-.61h0v-.87Zm-41.13-.78a.6.6,0,0,1,.36-.56l4.78-2.77a2.33,2.33,0,0,1,2.07.09l5.53,3.19c.36.21.53.49.49.74v.68h0a.57.57,0,0,1-.35.62l-4.78,2.77a2.33,2.33,0,0,1-2.07-.09l-5.53-3.19a1,1,0,0,1-.5-.6h0v-.87Zm-41.13-.63a.61.61,0,0,1,.36-.57l4.78-2.76a2.3,2.3,0,0,1,2.07.08L285,427c.37.21.54.49.5.74v.67h0a.59.59,0,0,1-.35.62l-4.78,2.76a2.27,2.27,0,0,1-2.07-.09l-5.53-3.19a.9.9,0,0,1-.5-.6h0v-.87Zm55.66-2.47a.59.59,0,0,1,.36-.57l4.78-2.76a2.3,2.3,0,0,1,2.07.08l5.52,3.2c.37.21.54.49.5.74V426h0a.59.59,0,0,1-.35.62L336,429.35a2.27,2.27,0,0,1-2.07-.09l-5.53-3.19a.9.9,0,0,1-.5-.6h0v-.87Zm-41-.71a.57.57,0,0,1,.35-.56l4.79-2.77a2.31,2.31,0,0,1,2.06.09l5.53,3.19c.37.21.54.49.5.74v.68h0a.57.57,0,0,1-.34.62L295,428.65a2.31,2.31,0,0,1-2.06-.09l-5.53-3.19a.92.92,0,0,1-.5-.6h0v0a.17.17,0,0,1,0-.1v-.75Zm-41.26-.7a.61.61,0,0,1,.36-.57l4.78-2.76a2.3,2.3,0,0,1,2.07.08l5.52,3.2c.37.21.54.49.51.74v.67h0a.58.58,0,0,1-.35.63l-4.78,2.76a2.27,2.27,0,0,1-2.07-.09l-5.53-3.19a.88.88,0,0,1-.49-.6h0v-.87Zm98.26-.83a.58.58,0,0,1,.35-.56L349,419a2.3,2.3,0,0,1,2.07.09l5.52,3.19c.37.21.54.49.5.75v.67h0a.58.58,0,0,1-.35.62L352,427.11a2.3,2.3,0,0,1-2.07-.08l-5.53-3.19a.92.92,0,0,1-.5-.61h0v-.87Zm-41-.7a.57.57,0,0,1,.35-.57l4.79-2.77a2.31,2.31,0,0,1,2.06.09l5.53,3.19c.37.21.54.49.5.75V423h0a.57.57,0,0,1-.34.62L311,426.41a2.33,2.33,0,0,1-2.07-.09l-5.52-3.19a.9.9,0,0,1-.5-.6h0v0a.21.21,0,0,1,0-.11v-.74ZM261.64,421a.61.61,0,0,1,.36-.57l4.78-2.76a2.33,2.33,0,0,1,2.07.08l5.53,3.2a.82.82,0,0,1,.5.75v.67h0a.58.58,0,0,1-.34.62l-4.79,2.76a2.3,2.3,0,0,1-2.07-.08l-5.52-3.19a.91.91,0,0,1-.5-.61h0V421Zm55.78-2.4a.6.6,0,0,1,.36-.56l4.79-2.77a2.28,2.28,0,0,1,2.06.09l5.53,3.19c.36.21.54.49.5.74v.68h0a.57.57,0,0,1-.34.62l-4.79,2.76a2.3,2.3,0,0,1-2.07-.08L317.93,420a.92.92,0,0,1-.5-.61h0v-.87Zm-41.12-.78a.57.57,0,0,1,.35-.56l4.79-2.77a2.31,2.31,0,0,1,2.06.09l5.53,3.19c.37.21.54.49.5.75v.67h0a.57.57,0,0,1-.34.62l-4.79,2.77a2.31,2.31,0,0,1-2.06-.09l-5.53-3.19a.9.9,0,0,1-.5-.6h0v0a.21.21,0,0,1,0-.11v-.75Zm57-1.55a.61.61,0,0,1,.36-.57l4.78-2.76a2.27,2.27,0,0,1,2.07.09l5.52,3.19c.37.21.54.49.51.74v.67h0a.58.58,0,0,1-.35.62L341.36,421a2.33,2.33,0,0,1-2.07-.08l-5.53-3.19a.9.9,0,0,1-.49-.61h0v-.87Zm-41-.71a.6.6,0,0,1,.35-.57l4.79-2.76a2.28,2.28,0,0,1,2.06.09l5.53,3.19c.37.21.54.49.5.75v.66h0a.57.57,0,0,1-.34.62l-4.79,2.76a2.28,2.28,0,0,1-2.06-.08L292.76,417a.92.92,0,0,1-.5-.61h0v0a.17.17,0,0,1,0-.1v-.74Zm-41.26-.7a.61.61,0,0,1,.36-.57l4.78-2.76a2.27,2.27,0,0,1,2.07.09l5.53,3.18c.37.22.54.49.5.75v.67h0a.57.57,0,0,1-.35.62l-4.78,2.76a2.33,2.33,0,0,1-2.07-.08l-5.52-3.2a.9.9,0,0,1-.5-.6h0v-.87Zm55.79-2.4a.58.58,0,0,1,.35-.57l4.79-2.76a2.25,2.25,0,0,1,2.06.09l5.53,3.18c.37.22.54.5.5.75v.67h0a.58.58,0,0,1-.34.62l-4.79,2.76a2.3,2.3,0,0,1-2.07-.08l-5.52-3.19a.94.94,0,0,1-.5-.61h0v0a.17.17,0,0,1,0-.1v-.75Zm-41.13-.78a.6.6,0,0,1,.35-.57l4.79-2.76a2.3,2.3,0,0,1,2.07.09l5.52,3.19c.37.21.54.49.5.74V413h0a.59.59,0,0,1-.35.62l-4.79,2.76a2.28,2.28,0,0,1-2.06-.08l-5.53-3.19a.92.92,0,0,1-.5-.61h0v-.87Zm57.13-1.46a.59.59,0,0,1,.35-.57l4.79-2.76a2.28,2.28,0,0,1,2.06.09l5.53,3.19c.37.21.54.49.5.74v.68h0a.57.57,0,0,1-.34.62l-4.79,2.76a2.3,2.3,0,0,1-2.07-.08l-5.52-3.19a.92.92,0,0,1-.5-.61h0v0a.17.17,0,0,1,0-.1v-.75Zm-41.13-.77a.58.58,0,0,1,.36-.57l4.78-2.77a2.33,2.33,0,0,1,2.07.09l5.52,3.19c.37.21.54.49.5.75v.67h0a.58.58,0,0,1-.35.62l-4.79,2.77a2.31,2.31,0,0,1-2.06-.09l-5.53-3.19a.92.92,0,0,1-.5-.6h0v-.86Zm14.53-3.11a.6.6,0,0,1,.35-.57l4.79-2.76a2.25,2.25,0,0,1,2.06.09l5.53,3.19c.37.21.54.49.5.74v.67h0a.57.57,0,0,1-.34.62L304.28,411a2.28,2.28,0,0,1-2.06-.08l-5.53-3.19a.92.92,0,0,1-.5-.61h0v-.87Zm16-2.26a.58.58,0,0,1,.35-.57l4.79-2.76a2.28,2.28,0,0,1,2.06.08l5.53,3.19c.37.22.54.5.5.75v.67h0a.58.58,0,0,1-.34.63l-4.79,2.76a2.25,2.25,0,0,1-2.06-.09l-5.53-3.19a.9.9,0,0,1-.5-.6h0v0a.17.17,0,0,1,0-.1V404ZM271,403.25a.6.6,0,0,1,.36-.56l4.78-2.77a2.3,2.3,0,0,1,2.07.09l5.52,3.19c.37.21.54.49.5.74v.68h0a.58.58,0,0,1-.35.62L279.12,408a2.3,2.3,0,0,1-2.07-.08l-5.53-3.19a.92.92,0,0,1-.5-.61h0v-.87Zm14.53-3.1a.6.6,0,0,1,.35-.57l4.79-2.76a2.3,2.3,0,0,1,2.07.08l5.52,3.2c.37.21.54.49.5.74v.67h0a.59.59,0,0,1-.35.63l-4.79,2.76a2.25,2.25,0,0,1-2.06-.09l-5.53-3.19a.9.9,0,0,1-.5-.6h0v-.87Zm16-2.24a.6.6,0,0,1,.35-.57l4.79-2.76a2.27,2.27,0,0,1,2.07.09l5.52,3.19c.37.21.54.49.5.74v.67h0a.59.59,0,0,1-.35.62l-4.79,2.76a2.28,2.28,0,0,1-2.06-.08l-5.53-3.19a.94.94,0,0,1-.5-.61h0v-.87Zm-10.64-6.14a.61.61,0,0,1,.35-.57l4.79-2.76a2.3,2.3,0,0,1,2.07.08l5.52,3.19c.37.22.54.49.5.75v.67h0a.59.59,0,0,1-.35.62L299,396.52a2.27,2.27,0,0,1-2.07-.09l-5.53-3.19a.9.9,0,0,1-.5-.6h0v-.87Z"/><g id="mouse"><path class="cls-17" d="M463.18,510.21c0-4.36-25.76-19-42.59-7.25-12.26,8.53-12.51,17.81-12.08,19.64,1.24,5.32,12.21,11.19,16.33,11.53,5.81.48,10.34-3.08,18.45-7.71C453.17,520.78,463.18,514.71,463.18,510.21Z"/><path class="cls-20" d="M464.16,506.53c0-4.51-26.69-19.65-44.12-7.51-12.69,8.84-13,18.45-12.5,20.35,1.28,5.5,12.64,11.58,16.91,11.93,6,.49,10.71-3.18,19.1-8,10.24-5.85,20.61-12.13,20.61-16.79Z"/><path class="cls-22" d="M463.47,508.76c-5.44,4.9-19.85-2.4-29.09,3.27-9.07,5.56-8.12,19.11-4.29,18.32l1.29-.28c3.45-1.42,7.15-3.89,12.17-6.76C452.22,518.36,461,513.09,463.47,508.76Z"/><path class="cls-22" d="M451,495.82a5.38,5.38,0,0,0-2.67-.62,10.36,10.36,0,0,0-6.42,2.54h0a2.43,2.43,0,0,0-.25.2h0l1.64.95.25-.21,8.85-.95a2.73,2.73,0,0,0-.14-.51l.42.25v-.68l-1.68-1Z"/><path class="cls-23" d="M450,496.15a10.59,10.59,0,0,0-6.68,2.74s10.72-.2,10.74-.21c-.26-1.5-1.76-2.53-4.06-2.53Z"/></g><path class="cls-2" d="M135.21,915.14,74.83,882.92,65,889.19h0l-.07,9.19L123,943.21l-.08,10.53L56.94,994.3l-.07,9.17,10.37,6.33h0l73.35-29.08v-.24c12.26,4.69,28,5,40.77.95L254,1010.54h0l10.45-6.3,0-9.17-62.72-39,.07-10.22,59.83-45.41.07-9.19h0L252,884.93l-60.12,31.54c-.45-.29-.92-.58-1.41-.86C175.26,906.75,150.66,906.59,135.21,915.14Z"/><path class="cls-24" d="M239.19,1001.86c-2.81-1.13-4.63-4.51-4.63-9.51,0-8.34,5.07-18,11.32-21.65,3-1.71,5.66-1.75,7.68-.44l7.78,4.35-5.06,11.22a30.47,30.47,0,0,1-3.85,8.53l-5.38,11.92Z"/><path class="cls-25" d="M265.72,984c0,8.35-5.07,18-11.32,21.65s-11.33-.22-11.33-8.57,5.07-18,11.33-21.64S265.72,975.67,265.72,984Z"/><path class="cls-26" d="M261.74,986.58c0,5.41-3.29,11.69-7.34,14s-7.35-.15-7.35-5.55,3.29-11.69,7.35-14S261.74,981.17,261.74,986.58Z"/><path class="cls-27" d="M259.66,987.78c0,3.88-2.35,8.38-5.26,10.06s-5.27-.1-5.27-4,2.36-8.39,5.27-10.06S259.66,983.9,259.66,987.78Z"/><path class="cls-28" d="M256.94,989.34a6.14,6.14,0,0,1-2.54,4.87c-1.41.81-2.55-.05-2.55-1.93a6.12,6.12,0,0,1,2.55-4.87c1.4-.81,2.54.05,2.54,1.93Z"/><path class="cls-24" d="M60.13,998.28c-2.81-1.13-4.63-4.51-4.63-9.51,0-8.34,5.07-18,11.33-21.64,3-1.71,5.65-1.75,7.67-.44L82.28,971l-5.06,11.21a30.47,30.47,0,0,1-3.85,8.53L68,1002.7Z"/><path class="cls-25" d="M86.67,980.44c0,8.34-5.08,18-11.33,21.64S64,1001.86,64,993.52s5.07-18,11.33-21.65S86.67,972.1,86.67,980.44Z"/><path class="cls-26" d="M82.68,983c0,5.41-3.29,11.69-7.34,14S68,996.88,68,991.48s3.29-11.69,7.35-14S82.68,977.59,82.68,983Z"/><path class="cls-27" d="M80.61,984.2c0,3.88-2.36,8.39-5.27,10.07s-5.27-.1-5.27-4,2.36-8.39,5.27-10.07S80.61,980.32,80.61,984.2Z"/><path class="cls-28" d="M77.89,985.77a6.09,6.09,0,0,1-2.55,4.86c-1.41.81-2.55,0-2.55-1.92a6.09,6.09,0,0,1,2.55-4.87c1.41-.81,2.55,0,2.55,1.93Z"/><path class="cls-24" d="M65.72,899.44c-2.81-1.12-4.63-4.51-4.63-9.51,0-8.34,5.07-18,11.32-21.64,3-1.71,5.66-1.76,7.68-.44l7.77,4.35-5,11.21A30.47,30.47,0,0,1,79,891.94l-5.38,11.92Z"/><path class="cls-25" d="M92.25,881.6c0,8.34-5.07,18-11.33,21.64S69.6,903,69.6,894.68s5.07-18,11.32-21.64S92.25,873.26,92.25,881.6Z"/><path class="cls-26" d="M88.27,884.17c0,5.41-3.29,11.69-7.35,14s-7.34-.14-7.34-5.55,3.29-11.69,7.34-14S88.27,878.77,88.27,884.17Z"/><path class="cls-27" d="M86.19,885.36c0,3.88-2.36,8.39-5.27,10.07s-5.27-.1-5.27-4,2.36-8.38,5.27-10.06S86.19,881.48,86.19,885.36Z"/><path class="cls-28" d="M83.47,886.94a6.09,6.09,0,0,1-2.55,4.86c-1.4.81-2.54,0-2.54-1.92A6.11,6.11,0,0,1,80.92,885c1.41-.81,2.55,0,2.55,1.93Z"/><path class="cls-24" d="M238.33,901.09c-2.81-1.13-4.64-4.51-4.64-9.51,0-8.34,5.07-18,11.33-21.65,3-1.71,5.66-1.75,7.67-.43l7.78,4.34-5.06,11.21a30.66,30.66,0,0,1-3.84,8.54l-5.38,11.92-7.86-4.42Z"/><path class="cls-25" d="M264.86,883.25c0,8.34-5.07,18-11.33,21.63s-11.33-.21-11.33-8.56,5.08-18,11.33-21.64S264.86,874.9,264.86,883.25Z"/><path class="cls-26" d="M260.87,885.81c0,5.41-3.28,11.69-7.34,14s-7.34-.15-7.34-5.55,3.29-11.7,7.34-14S260.87,880.4,260.87,885.81Z"/><path class="cls-27" d="M258.8,887c0,3.88-2.36,8.39-5.27,10.06s-5.27-.1-5.27-4,2.36-8.38,5.27-10.06S258.8,883.13,258.8,887Z"/><path class="cls-28" d="M256.08,888.58a6.09,6.09,0,0,1-2.55,4.87c-1.4.81-2.55-.05-2.55-1.92a6.12,6.12,0,0,1,2.55-4.87C254.94,885.84,256.08,886.7,256.08,888.58Z"/><path class="cls-29" d="M195.26,903.79,263,861.87l-.07,9.19L195.13,922.5l.13-18.71Z"/><path class="cls-30" d="M195.27,903.82l-15.82-9.56L179.31,913l15.82,9.56Z"/><path class="cls-31" d="M179.45,894.25l73.73-38.69,9.79,6.31-67.7,41.94Z"/><path class="cls-29" d="M133.27,902.06,66.16,859.81,66.09,869l67,51.78Z"/><path class="cls-32" d="M133.27,902.09l15.95-9.48-.13,18.69-16,9.48Z"/><path class="cls-31" d="M149.22,892.61,76.05,853.56l-9.88,6.26,67.1,42.27Z"/><path class="cls-33" d="M124.05,931.27c-.32,6.08,3.52,12.21,11.5,16.86,15.39,9,40.38,9,55.85.1,7.67-4.41,11.53-10.22,11.58-16h0l.21-29.68-4.83,2.77a29.64,29.64,0,0,0-6.8-5.29c-15.38-9-40.4-9-55.81-.14a29.94,29.94,0,0,0-6.47,4.89l-5-2.93L124,931.27Z"/><path class="cls-34" d="M135.85,886.1c15.41-8.88,40.43-8.83,55.81.14s15.37,23.44,0,32.3-40.45,8.87-55.85-.1-15.36-23.45.09-32.34Z"/><path class="cls-29" d="M68.53,971.24,142,932.64l-.13,18.71L68.46,980.43l.07-9.19Z"/><path class="cls-33" d="M68.53,971.26l-10.38-6.32-.06,9.17,10.37,6.32Z"/><path class="cls-31" d="M58.15,964.94l68.29-42,15.82,9.55L68.53,971.26Z"/><path class="cls-29" d="M255.26,972.06l-72.87-39-.13,18.71,72.93,29.44Z"/><path class="cls-33" d="M255.26,972.09l10.46-6.28-.06,9.17-10.47,6.28Z"/><path class="cls-31" d="M265.72,965.81,198,923.47,182.09,933l73.17,39.13,10.46-6.27Z"/><path class="cls-31" d="M146.62,897.48c-.18,2.68,1.5,5.4,5,7.45,6.75,3.9,17.72,3.9,24.47,0,3.2-1.85,4.88-4.24,5.05-6.66h.05l.2-196.53-34.65-.14Z"/><path class="cls-35" d="M335.69,795.19a188,188,0,0,0,34.11-5.78c19.86-5.09,27.33-10.68,37.2-6.22s7.22,20,3.82,26.2-22.51,21.24-35.16,25.49-39.29,13.47-39.29,13.47-11.94,8.15-22.52,6.64-14.61-14-13.77-35.67,35.61-24.13,35.61-24.13Z"/><path class="cls-36" d="M304.63,848.76c-1.66-2.67,10.6,5.11,25.12-2.71,18.75-10.1,34.43-11.78,50.07-19.29,19.48-9.35,32-19.25,31-17.37-3.4,6.18-22.51,21.24-35.16,25.49s-39.29,13.47-39.29,13.47-11.94,8.15-22.52,6.64A12.56,12.56,0,0,1,304.63,848.76Z"/><path class="cls-37" d="M342.08,815.23s-9.43-34.26-20.9-83.93c-9.65-41.76-12.71-98-41.67-122.37s-53.9-7.16-67-2.59-142.79,50.3-142.79,50.3-23,51.52,26.69,99.28c21.38,20.55,147.79-76.65,147.79-76.65s2.8,40.91,11,59.21,37.3,91.71,37.3,91.71,28,7,49.54-15Z"/><path class="cls-38" d="M244.09,700.64,100,783.84l-5.11,2.34-1,.32-4.54,1-.42,0-4.43-.24-.26-.06-4-1.52h0l15,8.7.13.08,1.4.69,1.46.51,1,.22.22.06.35.08,1.68.2h1.83l.61-.06.38,0,1.08-.09,2.43-.54,2-.69,1.22-.43,3.87-1.91L259,709.32l-14.92-8.68Z"/><path class="cls-29" d="M259,709.31l-144.08,83.2c-15.29,8.81-27.77,1.69-27.81-15.88l-.45-155.4-10,5.77.45,155.43C77.16,806.35,94.18,816,115,804l144.09-83.2Z"/><path class="cls-39" d="M335.23,745.2c.19,2.79-1.39,5.48-4.82,7.46L201.52,827.08c-7.16,4.13-19.68,3.61-28-1.16L28.32,742.06c-4.68-2.7-7-6.2-6.83-9.47h0V713.07l13.25,7.64v.35l120.47-69.55c7.16-4.13,19.68-3.62,27.95,1.16l139.26,80.4,12.83-7.4v19.52Z"/><path class="cls-40" d="M174.29,806.8c7.42,4.28,18.66,4.75,25.08,1l131.54-76c6.43-3.7,5.62-10.19-1.8-14.48L182.4,632.7c-7.42-4.28-18.66-4.74-25.09-1L25.77,707.61c-6.42,3.71-5.62,10.2,1.8,14.49Z"/><path class="cls-35" d="M401.78,872.07s13.75,3.82,34.25,5,29.43-2,37.33,5.55.3,22.29-4.94,27.39-28.29,14.09-41.68,14.33-41.69,1-41.69,1-14,4.36-23.53-.49-9.29-18.6-1.42-40,41.68-12.84,41.68-12.84Z"/><path class="cls-36" d="M354.8,915.76c-.71-3.19,8.39,8.46,24.72,5.24,21.09-4.16,36.52-.88,53.81-3.43,21.54-3.18,36.69-9.1,35.09-7.54-5.25,5.1-28.29,14.09-41.68,14.33s-41.69,1-41.69,1-14,4.36-23.53-.49A12.66,12.66,0,0,1,354.8,915.76Z"/><path class="cls-41" d="M405.09,885.64c11-15.42-2.6-28.73,2.74-82,4.49-44.77,20-101.94.45-135.43s-48.8-24.2-62.71-23.78-142,1-142,1S83.78,562.23,78.31,569.79C51.62,606.71,53,655.29,53,690.34c0,48.13,93.17,82.26,157.61,70.54,51-9.26,141.23-33.56,141.23-33.56s-10.71,41.76-8.88,62.64,6.75,99,6.75,99,45.55,10.43,55.42-3.35Z"/><path class="cls-37" d="M367.05,891.87c5.84.67,11.13-116.6,3.82-145.93-6.48-26-19.07-18.62-19.07-18.62s-10.71,41.77-8.88,62.65,6.75,99,6.75,99,7.67,1.76,17.38,2.88Z"/><path class="cls-42" d="M260.6,451.1s25.32.48,32.49-.76c4.09-.72,10.51-6.7,10.51-6.7s1.83-4.2-6.05-1.89-11.12.56-11.12.56l17.58-9.2,11.46-3s3.63-3.25,2.68-4.83c-1.6-2.66-10.39-9.91-12.31-11.14s-12-1.59-17.5.32c-7.74,2.68-29,15.78-29,15.78Z"/><path class="cls-43" d="M260.6,451.1s4.39.09,10,.09c1.13,0,4-15.44-4.25-25.17-4.13,2.32-7,4.22-7,4.22Z"/><path class="cls-22" d="M263.79,460.65c7.32-2.7,6.86-23.47-4.42-30.41-31.79-.31-91,3.55-91,3.55s-50.59-.72-59.5-17.28S82.67,387.33,73.68,390s-17,17.56-6.45,50.77C84.87,496.42,139.66,485,139.66,485S228.59,473.68,263.79,460.65Z"/><path class="cls-44" d="M167.31,406.84S225,433.71,220.84,495.2,218.36,592,235.5,639.1c13,35.65-78,64-128.35,36.16-30.78-17-39.3-36.7-40.36-52.39C63,566.18,83.51,578.68,69.22,516.36c-10.75-46.9-15-66.35-15.17-90.82-.29-35.37,10.33-50.63,27.4-53.22,33.27-5.05,87.46,35,85.86,34.52Z"/><path class="cls-22" d="M171.69,513.9s11.42-72.8,49.15-41.08c-3.88,61.5-2.48,119.23,14.66,166.28,6.29,17.27-12.27,31.5-37.87,41.11-6.85-43.4-24.35-165.84-25.94-166.31Z"/><path class="cls-42" d="M194.1,327.64c-2.17,15.13-7.9,40.74-16.09,47.46-2.69,2.2-10.43.46-10.43.46s-3.37-1.23-8,12.41,0,6.65-2.15,19.32c-.49,3-42.59-22.13-50.42-26.72,1.42-10.18,3.68-15.38,1.17-20.2-6-11.61-12.8-33.63-12.86-46.33a42.94,42.94,0,0,1,12.52-29.91c8.3-8,23.47-18.31,37.33-18.27s37.64,8.2,45.79,18.49,5.15,29,3.11,43.29Z"/><path class="cls-43" d="M164.68,335.91c-2.24,27.22,5.08,33.09,13.33,39.18-2.5,2.42-10.43.47-10.43.47s-3.37-1.23-8,12.4.4,12.84-2.15,19.32c-1.11,2.83-40.35-19.62-50.42-26.72,1.4-10.08,3.82-15.47,1.17-20.19-6.4-11.42,44.83-26.89,56.47-24.46Z"/><path class="cls-42" d="M380.79,516.23s6.38-7.33,10.28-12a218.57,218.57,0,0,1,17.2-17.08c3.28-2.88,7.7-3.39,8.7-2.93,2.41,1.11-6.81,8.31-8,10.92s9.68-4.62,14.17-5.84c4.13-1.14,9.44-3.12,12.75-1.5s18.38,13.93,18.38,13.93,2.07,4.59-.48,6.48-4.49-1-9.07-.48-13.87,2.22-16.85,6.58-5.59,9-12.55,12.8c-4.24,2.29-9.21,5.73-13.38,5.53-2.67-.13-10.58,2.12-10.58,2.12l-10.53-18.55Z"/><path class="cls-43" d="M380.79,516.23s3.87-4.45,7.43-8.62c10.55,2.19,14.75,20,13.68,25-2.67-.13-10.58,2.12-10.58,2.12l-10.53-18.55Z"/><path class="cls-44" d="M400.1,543.69c5.95-5.58-3.56-30.1-16.57-33.54-30,11.15-74.57,37.91-84.34,36.7S219,454.34,204.88,439.66s-26-10.4-33.59-4.3-38.34,37.81,5,83.93,89.6,95.82,113.48,87.26C325.12,593.88,371.49,570.48,400.1,543.69Z"/><path class="cls-22" d="M400.1,543.69c2-1.92,2.15-6.05,1.14-10.84-12.91,7.5-71.53,46-114.36,53.57-24.77,4.36-71.15-51.08-116.86-74.35,49.78,55.1,95.9,103,119.78,94.48C325.12,593.88,371.49,570.48,400.1,543.69Z"/><path class="cls-45" d="M195.58,295.21s3.49-28.8-32.52-33.28-48.8,6.79-55.73,14.78-14.22,24.14-12.69,37.13c3.58,30.56,13,45.47,13,45.47a81.57,81.57,0,0,0,19.86,3.12c10.69.19,22.31-20.53,22.31-20.53l14.53-11,.1,8.47,6.66.82,2.61-35.69,21.84-9.3Z"/><path class="cls-46" d="M163.85,328.92s-1.24-7.21-10.8-6.6c-8.94.57-8.6,9-7.34,13.26,2.77,9.36,13.11,13.81,17.67,12C167.1,346.14,163.85,328.92,163.85,328.92Z"/><path class="cls-47" d="M186.17,716.25h0l-23.45,13.54V708L32.34,632.75a17.78,17.78,0,0,1-8.89-15.4V524.67L4.89,514l23.46-13.54,0,0,.06,0h0a9.91,9.91,0,0,1,9.83,0L177.4,580.7a29.85,29.85,0,0,1,14.93,25.86v100a10.75,10.75,0,0,1-5.36,9.29,8.62,8.62,0,0,1-.8.41Z"/><path class="cls-39" d="M0,522.48a9.89,9.89,0,0,1,14.83-8.56L154,594.23a29.88,29.88,0,0,1,14.93,25.86v100a10.72,10.72,0,0,1-16.08,9.28L8.89,646.29A17.79,17.79,0,0,1,0,630.89V522.48Z"/><path class="cls-31" d="M77.12,782.44,76.67,650l-15-8.65.46,132.38c0,7.42,1.67,13.47,4.55,17.93a19,19,0,0,0,6.45,6.23l14.95,8.69C81.34,802.69,77.14,794.33,77.12,782.44Z"/><path class="cls-48" d="M76.67,667.83l-15-8.66,10-5.78,14.93,8.66Z"/><path class="cls-29" d="M114.93,792.51c-15.29,8.81-27.77,1.69-27.81-15.88L86.67,662l-10,5.78.45,114.61C77.16,806.35,94.18,816,115,804l0-11.5Z"/><path class="cls-29" d="M113.66,675.24h0l-10.09,5.82V671.7L47.46,639.3a7.65,7.65,0,0,1-3.83-6.63V592.79l-8-4.62,10.1-5.83h0a4.26,4.26,0,0,1,4.23,0l59.88,34.57A12.87,12.87,0,0,1,116.31,628v43a4.62,4.62,0,0,1-2.31,4Z"/><path class="cls-31" d="M33.54,591.84a4.25,4.25,0,0,1,6.38-3.68l59.87,34.57a12.83,12.83,0,0,1,6.43,11.12v43a4.62,4.62,0,0,1-6.92,4L37.37,645.13a7.66,7.66,0,0,1-3.83-6.63V591.84Z"/><path class="cls-17" d="M279.69,361.84c-10-4.8-26.25-4.81-36.21,0s-9.92,12.59.12,17.39,26.24,4.8,36.21,0,9.92-12.58-.12-17.38Z"/><path class="cls-44" d="M228.72,313.38a11.83,11.83,0,0,1,5.64,1.78c8.1,4.69,14.95,16.54,14.95,25.91,0,3.73-1.12,6.52-3.06,7.65s-4.9.67-8.14-1.19c-8.11-4.68-15-16.53-15-25.89,0-3.74,1.12-6.53,3.06-7.65Zm15,43.46A12.36,12.36,0,0,0,250,355.2c4.39-2.53,6.8-7.55,6.8-14.13,0-12.12-8.2-26.34-18.69-32.39-5.71-3.32-11.29-3.71-15.65-1.18s-6.8,7.55-6.8,14.14c0,12.11,8.21,26.33,18.7,32.39A18.89,18.89,0,0,0,243.75,356.84Z"/><path class="cls-44" d="M236,311.06l.15,50.94c0,3.77,2.47,7.54,7.4,10.39,10,5.81,26.14,5.76,36.11,0,5-2.9,7.56-6.73,7.55-10.54l-.15-50.94c0,3.81-2.51,7.63-7.54,10.53-10,5.76-26.12,5.81-36.12,0C238.51,318.57,236.05,314.82,236,311.06Z"/><path class="cls-49" d="M243.56,300.52c-10,5.76-10,15.16-.12,20.91s26.14,5.77,36.12,0,10.1-15.11.12-20.91S253.54,294.75,243.56,300.52Z"/><path class="cls-22" d="M242.8,317.33A11.45,11.45,0,0,0,246,320c8.62,4.88,22.39,4.88,30.89,0a15.71,15.71,0,0,0,3.48-2.75c4.75-4.87,3.75-11-3.37-15.12-8.5-4.88-22.38-4.88-30.88,0-7.12,4.12-8.24,10.37-3.36,15.25Z"/><path class="cls-50" d="M242.8,317.33A11.45,11.45,0,0,0,246,320c8.62,4.88,22.39,4.88,30.89,0a15.71,15.71,0,0,0,3.48-2.75,12,12,0,0,0-3.37-2.62c-8.5-4.88-22.38-4.88-30.88,0A12.61,12.61,0,0,0,242.8,317.33Z"/><path class="cls-51" d="M373.29,133.14,337,111.57a2.34,2.34,0,0,0-3.51,1.74L320.13,228.9c-.83,7.19,2.28,13.72,8.07,17.17L420.64,301a2.33,2.33,0,0,0,3.51-1.74l5.25-45.38a6.9,6.9,0,0,0-2.16-5.65,4.17,4.17,0,0,0-4.34-1c-2.5,1-5.49.53-8.61-1.31h0c-8.39-5-14.07-17.81-12.37-28.14h0c1.21-7.34,7.57-11.33,13.7-8.18h0c3.87,2,7.2,5.7,9.59,10.1,1.45,2.65,3.86,3.34,5.45,2.86a3.94,3.94,0,0,0,2.76-3.61l5.24-45.38a2.34,2.34,0,0,0-1.13-2.27l-36.68-21.79a3.47,3.47,0,0,1-1.28-2.91,1.4,1.4,0,0,1,.06-.24c3.29-2.38,5.69-6.72,6.2-12.69h0c.91-10.81-5.15-23.75-13.59-29.2h0c-5.19-3.35-10.25-3.52-14.18-1.41s-6.74,6.43-7.47,12.74a32.86,32.86,0,0,0,2.5,16h0A3.4,3.4,0,0,1,373.29,133.14ZM429,216.85a28.51,28.51,0,0,0-11.22-11.4,13.31,13.31,0,0,0-13.06.15A15.87,15.87,0,0,0,397.31,217c-2,12.1,4.77,27.07,14.59,32.91h0c4.39,2.61,8.65,3,12.23,1.81a2.92,2.92,0,0,1,.62,1.57l-4.83,41.81-89.34-53.08c-4.25-2.52-6.43-7.34-5.83-12.61l12.94-112,33.53,19.92a4.15,4.15,0,0,0,5.12-.29c1.45-1.25,2.33-4,1.07-7.05a28.05,28.05,0,0,1-2.18-13.67h0c.52-4.46,2.32-7.7,5-9.16s6-1,9.45,1.22c7.18,4.64,12.24,15.69,11.47,24.88-.37,4.37-1.92,7.63-4.35,9.35h0a5.21,5.21,0,0,0-1.93,4.65,8.16,8.16,0,0,0,3.56,6.25l35.39,21Z"/><path class="cls-52" d="M430.35,164l13.31,7.19-1.21,14L429.14,178Z"/><path class="cls-51" d="M431.46,162a2.36,2.36,0,0,0-2.22,0,2.32,2.32,0,0,0-1.21,1.86l-1.21,14A2.32,2.32,0,0,0,428,180.1l13.32,7.19a2.33,2.33,0,0,0,3.43-1.86l1.21-14a2.34,2.34,0,0,0-1.22-2.26Zm.91,5.8,8.84,4.77-.77,8.93-8.84-4.77Z"/><path class="cls-52" d="M424.7,205.22,438,212.41l-1.21,14-13.31-7.19Z"/><path class="cls-51" d="M425.81,203.17a2.34,2.34,0,0,0-3.44,1.86l-1.21,14a2.33,2.33,0,0,0,1.22,2.25l13.31,7.19a2.34,2.34,0,0,0,3.44-1.86l1.2-14a2.31,2.31,0,0,0-1.21-2.26l-13.31-7.19Zm.91,5.8,8.84,4.77-.78,8.93L426,217.9Z"/><path class="cls-52" d="M419.27,237.48l13.31,7.18-1.21,14-13.31-7.19Z"/><path class="cls-51" d="M420.38,235.41a2.34,2.34,0,0,0-3.44,1.86l-1.2,14a2.32,2.32,0,0,0,1.21,2.25l13.31,7.19a2.34,2.34,0,0,0,3.44-1.85l1.21-14a2.34,2.34,0,0,0-1.22-2.26Zm.91,5.8,8.84,4.77-.78,8.93-8.83-4.77Z"/><path class="cls-52" d="M414,287.42l13.31,7.18-1.21,14-13.31-7.18Z"/><path class="cls-51" d="M415.1,285.37a2.36,2.36,0,0,0-2.22,0,2.31,2.31,0,0,0-1.21,1.85l-1.22,14a2.35,2.35,0,0,0,1.22,2.26L425,310.66a2.3,2.3,0,0,0,2.22,0,2.34,2.34,0,0,0,1.22-1.85l1.21-14a2.33,2.33,0,0,0-1.22-2.25Zm.91,5.8,8.83,4.77-.77,8.93-8.83-4.77Z"/><path class="cls-52" d="M330.59,102.86l13.32,7.19-1.21,14-13.32-7.19Z"/><path class="cls-51" d="M331.7,100.82a2.3,2.3,0,0,0-2.22,0,2.33,2.33,0,0,0-1.21,1.85l-1.21,14a2.36,2.36,0,0,0,1.21,2.26l13.32,7.18a2.33,2.33,0,0,0,3.43-1.85l1.21-14A2.36,2.36,0,0,0,345,108l-13.32-7.18Zm.91,5.79,8.84,4.77-.77,8.94-8.84-4.77Z"/><path class="cls-52" d="M320.09,204.19l13.32,7.18-1.21,14-13.32-7.18Z"/><path class="cls-51" d="M321.2,202.14a2.33,2.33,0,0,0-3.43,1.85l-1.21,14a2.35,2.35,0,0,0,1.22,2.26l13.31,7.18a2.28,2.28,0,0,0,2.21,0,2.32,2.32,0,0,0,1.22-1.85l1.21-14a2.32,2.32,0,0,0-1.22-2.25Zm.91,5.8,8.84,4.77-.77,8.93-8.84-4.77Z"/><path class="cls-52" d="M333.5,239.86l13.32,7.19-1.21,14-13.32-7.19Z"/><path class="cls-51" d="M334.61,237.8a2.33,2.33,0,0,0-3.43,1.85l-1.21,14a2.33,2.33,0,0,0,1.22,2.25l13.31,7.19a2.33,2.33,0,0,0,3.43-1.86l1.21-14a2.35,2.35,0,0,0-1.21-2.26Zm.91,5.8,8.84,4.77-.77,8.93-8.84-4.77Z"/><path class="cls-52" d="M395.89,210.2l13.31,7.18-1.21,14-13.31-7.18Z"/><path class="cls-51" d="M397,208.14a2.33,2.33,0,0,0-3.43,1.85l-1.22,14a2.34,2.34,0,0,0,1.22,2.25l13.31,7.19a2.3,2.3,0,0,0,2.22,0,2.34,2.34,0,0,0,1.22-1.85l1.21-14a2.35,2.35,0,0,0-1.22-2.26Zm.91,5.79,8.84,4.77-.78,8.94-8.83-4.78Z"/><path class="cls-52" d="M383.58,95.06l13.32,7.19-1.22,14-13.31-7.18Z"/><path class="cls-51" d="M384.69,93a2.3,2.3,0,0,0-2.22,0,2.33,2.33,0,0,0-1.21,1.85l-1.21,14a2.33,2.33,0,0,0,1.21,2.25l13.32,7.19a2.33,2.33,0,0,0,3.43-1.85l1.21-14a2.35,2.35,0,0,0-1.22-2.26Zm.91,5.79,8.84,4.77-.77,8.94-8.84-4.77Z"/></g></g></svg>