<svg xmlns="http://www.w3.org/2000/svg" viewBox="0 0 453.04 954.93"><defs><style>.cls-1{fill:#dbdbfa;}.cls-2{fill:#cacaf8;}.cls-3{fill:#f0f0fd;}.cls-4{fill:#ffc000;}.cls-5{fill:#dda600;}.cls-6{fill:#1d1b57;}.cls-7{fill:#d6dbe8;}.cls-8{fill:#caacff;}.cls-9{fill:#b58bff;}.cls-10{fill:#8038ff;}.cls-11{fill:#f3b06e;}.cls-12{fill:#f1a255;}.cls-13{fill:#eb8016;}.cls-14{fill:#f8d2ac;}.cls-15{fill:#fff;}.cls-16{fill:#c8edff;}.cls-17{fill:#aee4ff;}.cls-18{fill:#16a6eb;}.cls-19{fill:#effaff;}.cls-20{fill:#ffe699;}.cls-21{fill:#ffd75b;}.cls-22{fill:#fff4d2;}.cls-23{fill:#c9c9f8;}.cls-24{fill:#b9b9f6;}.cls-25{fill:#d6d6fa;}.cls-26{fill:#b2b2f6;}.cls-27{fill:#f74169;}.cls-28{fill:#67b4ff;}.cls-29{fill:#8682d8;}.cls-30{fill:#ffecb1;}</style></defs><title>Asset 14</title><g id="Layer_2" data-name="Layer 2"><g id="Layer_1-2" data-name="Layer 1"><g id="computer-screen"><path class="cls-1" d="M197.39,100.23c3.69-2.12,8.4-2,13.25.76l227.5,137.25c9.66,5.57,16.23,19.81,14.67,31.78L379,836.2c-.78,6-3.42,10.24-7.07,12.34h0a10.15,10.15,0,0,1-1,.51l-19.89,10.19.54-15.54L131.19,710.54c-9.66-5.57-16.23-19.81-14.67-31.78l72.73-558-11.81-10.32,19.95-10.23Z"/><path class="cls-2" d="M379,836.2c-.78,6-3.42,10.24-7.08,12.35h0c-.32.18-.65.35-1,.5l-17.87,9.16-2,.79,72.44-566.29,27.76-10.92L379,836.2Z"/><path class="cls-3" d="M431.94,280.71c1.56-12-5-26.21-14.67-31.78L189.77,111.68c-9.65-5.57-18.76-.37-20.32,11.59L95.65,689.46c-1.56,12,5,26.2,14.67,31.77l227.5,137.25c9.65,5.58,18.76.38,20.32-11.59l73.8-566.18Z"/><path class="cls-4" d="M425.27,282.42c1.55-11.86-5-26-14.54-31.49L188.91,117c-9.57-5.52-18.6-.37-20.14,11.49L95.62,689.65c-1.55,11.86,5,26,14.53,31.5L332,855.13c9.57,5.52,18.59.37,20.14-11.5l73.15-561.21Z"/><path class="cls-5" d="M349.73,863.64,356.5,810,343,802.2c-3.57-2.05-6.94-.13-7.51,4.29L329.53,852l20.2,11.65Z"/><path class="cls-6" d="M329.48,223.28a7.4,7.4,0,0,0-3.17-6.86L251.7,171.36c-2.09-1.21-4-.08-4.39,2.5l-.18,1.39a7.35,7.35,0,0,0,3.17,6.86l74.61,45.06c2.08,1.21,4,.09,4.39-2.5Z"/></g><path class="cls-5" d="M166.27,147.66l-70.65,542c-1.54,11.87,5,26,14.54,31.5l208.66,126,70.64-541.94c1.56-12-5-26.21-14.67-31.78l-35-21.11-3.46,26.55c-1.56,12-10.66,17.16-20.32,11.59L193.11,216.34c-9.65-5.57-16.22-19.81-14.67-31.78l3.58-27.4-15.75-9.5Z"/><path class="cls-5" d="M253.68,190.48c.57-4.42-1.86-9.68-5.42-11.74l-46.79-27c-3.56-2.06-6.93-.14-7.5,4.28l-7.05,54.09c-.58,4.42,1.85,9.68,5.42,11.74l46.78,27c3.57,2.06,6.93.14,7.51-4.28Z"/><path class="cls-7" d="M66,833.47l172,99.28c7.33,4.24,5.71,12-3.62,17.44s-22.87,6.32-30.21,2.09L32.16,853l-.08,0c-7.24-4.25-5.6-12,3.7-17.39S58.65,829.24,66,833.47Z"/><path class="cls-8" d="M295.42,278.52l35,21.11c9.66,5.57,16.23,19.81,14.67,31.77l-73.8,566.19c-1.27,9.74-7.54,15-15,13.61l.42-12.14Q146.45,832.47,36.25,765.9C25.92,759.65,20,746,21.58,734.12q36.32-279,72.73-558l-9.86-8.62c.82-1.71-3.11-1.08-1.88-2.21l7.58-3.41c3.65-2.11,8.31-2.05,13.11.68l34.38,20.75-3.57,27.4c-1.56,12,5,26.2,14.67,31.77l122.9,74.16c9.66,5.56,18.77.37,20.32-11.6l2.31-17.68-7.41-4.47,8.56-4.39Z"/><path class="cls-9" d="M271.29,897.59c-.78,6-3.42,10.24-7.08,12.34h0a10.15,10.15,0,0,1-1,.51l-5.56,2.85-2,.79,74-578.25,15.46-4.6L271.29,897.59Z"/><path class="cls-10" d="M286.86,282.91l-3.46,26.54c-1.56,12-10.67,17.16-20.32,11.59L140.17,246.89c-9.65-5.57-16.22-19.81-14.66-31.78l3.57-27.4-34.73-21c-9.66-5.57-18.76-.37-20.32,11.6L.23,744.54c-1.56,12,5,26.2,14.67,31.77L242.4,913.57c9.65,5.57,18.76.37,20.32-11.6l73.8-566.18c1.56-12-5-26.21-14.67-31.77l-35-21.11Z"/><path class="cls-11" d="M111.18,436.08a6,6,0,0,1,6.12.34l58.56,33.78c4.46,2.57,7.5,9.15,6.78,14.69l-8.83,67.67c-.36,2.75-1.58,4.73-3.27,5.7h0a3.88,3.88,0,0,1-.45.24l-7.79,3.35.25-7.18-55.28-31.88c-4.47-2.57-7.5-9.15-6.78-14.69l8.32-63.88-5.45-4.77,7.82-3.37Z"/><path class="cls-12" d="M182.63,484.88l-8.82,67.67c-.36,2.76-1.58,4.73-3.27,5.71l-.45.23-6.81,2.94,8.87-74.28Z"/><path class="cls-13" d="M174.36,488.49c.72-5.53-2.31-12.11-6.78-14.69L109.05,440c-4.46-2.57-8.67-.17-9.39,5.36l-8.83,67.67c-.72,5.54,2.32,12.12,6.79,14.69l58.53,33.78c4.46,2.58,8.67.18,9.39-5.35Z"/><path class="cls-14" d="M99.66,445.37l-.25,1.87c.71-5.4,4.82-7.74,9.18-5.23l56.47,32.6c4.36,2.51,7.32,8.94,6.62,14.33L163.07,555c-.7,5.35-4.75,7.7-9.06,5.29l2.14,1.24c4.47,2.57,8.68.17,9.4-5.36l8.82-67.68c.72-5.53-2.32-12.11-6.78-14.68L109.05,440c-4.46-2.57-8.67-.17-9.39,5.36Z"/><path class="cls-15" d="M131.36,510.57c4.25,2.64,8.24.53,8.9-4.73s-2.24-11.66-6.49-14.3-8.23-.53-8.89,4.73S127.11,507.93,131.36,510.57Zm24.35,9.91-5.94-2.09a16.62,16.62,0,0,1-2.17,3.83l2.43,8-6.55,3.48-4.3-6.86a13.44,13.44,0,0,1-4.26-.42l-2,6.19-8-5L124.6,520a34.36,34.36,0,0,1-3.75-4.56l-5.27.91-4.77-10.53,4-4a37.44,37.44,0,0,1-1-5.78L108.24,491l1.25-9.91,6.1,2.15a15.2,15.2,0,0,1,2.13-3.54l-2.54-8.36,6.55-3.49,4.63,7.41a13.27,13.27,0,0,1,3.75.41l2.21-6.73,8,5,.31,8.29a35.75,35.75,0,0,1,3.3,4l5.69-1,4.77,10.53-4.12,4.21a40.27,40.27,0,0,1,1,5.49l5.71,5.17-1.26,9.91Z"/><path class="cls-16" d="M65.82,412.08a6,6,0,0,1,6.12.35l19.32,11.14c4.46,2.57,7.5,9.16,6.78,14.69l-8.82,67.67c-.36,2.75-1.58,4.73-3.27,5.71h0l-.46.23-7.79,3.36.25-7.18-16-9.26c-4.46-2.57-7.5-9.15-6.78-14.68l8.33-63.88L58,415.45l7.82-3.37Z"/><path class="cls-17" d="M98,438.27l-8.82,67.67c-.36,2.75-1.59,4.73-3.27,5.71l-.46.23-6.8,2.93,8.86-74.28L98,438.27Z"/><path class="cls-18" d="M89.78,441.86c.72-5.53-2.32-12.11-6.78-14.68L63.7,416c-4.46-2.58-8.67-.18-9.39,5.35l-8.82,67.68c-.72,5.53,2.32,12.11,6.78,14.69l19.3,11.15c4.46,2.57,8.67.17,9.39-5.36l8.82-67.68Z"/><path class="cls-19" d="M54.3,421.4l-.24,1.87c.7-5.4,4.81-7.74,9.17-5.23L80.47,428c4.36,2.52,7.32,8.94,6.62,14.34l-8.61,66.05c-.7,5.35-4.74,7.7-9.06,5.28l2.15,1.24c4.46,2.58,8.67.18,9.39-5.36l8.82-67.67c.72-5.53-2.32-12.11-6.78-14.69L63.7,416c-4.47-2.57-8.68-.17-9.4,5.36Z"/><path class="cls-20" d="M195.45,485.14a6,6,0,0,1,6.13.35L287,534.77c4.46,2.58,7.5,9.16,6.78,14.69L285,617.13c-.36,2.76-1.58,4.74-3.27,5.71h0l-.46.24-7.78,3.35.24-7.18-82.15-47.4c-4.47-2.57-7.51-9.15-6.79-14.68l8.33-63.89-5.46-4.77,7.82-3.37Z"/><path class="cls-21" d="M293.79,549.46,285,617.13c-.36,2.75-1.59,4.73-3.27,5.71l-.46.23-6.8,2.93,8.87-74.27Z"/><path class="cls-4" d="M285.53,553.07c.72-5.53-2.32-12.12-6.78-14.69l-85.41-49.3c-4.47-2.57-8.67-.17-9.4,5.36l-8.81,67.67c-.73,5.54,2.31,12.12,6.77,14.69l85.42,49.3c4.46,2.58,8.67.18,9.39-5.36Z"/><path class="cls-22" d="M183.94,494.43l-.24,1.87c.7-5.4,4.81-7.74,9.16-5.23l83.36,48.12c4.35,2.51,7.32,8.93,6.62,14.33l-8.61,66c-.7,5.36-4.75,7.71-9.06,5.3l2.14,1.23c4.46,2.58,8.67.18,9.39-5.35l8.83-67.68c.72-5.53-2.32-12.11-6.78-14.69l-85.42-49.3C188.87,486.5,184.66,488.9,183.94,494.43Z"/><path class="cls-23" d="M56.61,516.84a5.94,5.94,0,0,1,6.12.35L270,636.76c4.46,2.57,7.5,9.15,6.78,14.69L268,719.12c-.36,2.75-1.58,4.73-3.27,5.71h0l-.46.23-7.78,3.35.24-7.17L52.7,603.55c-4.46-2.57-7.5-9.15-6.78-14.68L54.25,525l-5.46-4.77,7.82-3.37Z"/><path class="cls-24" d="M276.79,651.44,268,719.11c-.36,2.75-1.58,4.73-3.27,5.71l-.46.23-6.8,2.93,8.87-74.27Z"/><path class="cls-3" d="M268.52,655.05c.72-5.53-2.31-12.12-6.78-14.69L54.49,520.78c-4.46-2.58-8.67-.18-9.39,5.36l-8.82,67.67c-.72,5.53,2.32,12.11,6.78,14.69L250.31,728.08c4.46,2.57,8.67.18,9.39-5.36Z"/><path class="cls-15" d="M45.11,526.13,44.86,528c.71-5.4,4.81-7.74,9.17-5.23l205.19,118.4c4.35,2.51,7.32,8.94,6.62,14.34l-8.61,66c-.7,5.36-4.75,7.7-9.06,5.29l2.14,1.24c4.46,2.57,8.67.17,9.39-5.36L268.53,655c.72-5.53-2.32-12.11-6.78-14.68L54.5,520.77c-4.47-2.57-8.67-.17-9.4,5.36Z"/><path class="cls-25" d="M81.94,278.44a5.12,5.12,0,0,1,5.23.29l218,125.74c3.81,2.2,6.41,7.82,5.79,12.54l-11.64,89.35a6.34,6.34,0,0,1-2.8,4.88h0l-.39.2-6.65,2.86.21-6.13L74.48,384.05c-3.81-2.2-6.4-7.82-5.79-12.55l11.23-86.11-4.67-4.07,6.69-2.88Z"/><path class="cls-26" d="M311,414a11.89,11.89,0,0,1,0,3l-11.64,89.35a6.3,6.3,0,0,1-2.8,4.87l-.39.2-6.32,2.73,12.36-96.67L311,414Z"/><path class="cls-3" d="M303.93,420.08c.61-4.72-2-10.35-5.79-12.55l-218-125.74c-3.82-2.2-7.41-.15-8,4.58L60.45,375.72c-.62,4.73,2,10.34,5.79,12.55L284.26,514c3.81,2.2,7.41.15,8-4.58Z"/><path class="cls-4" d="M120.42,320c18.13,10.88,30.74,35.45,28.21,55.14a30.24,30.24,0,0,1-2.77,9.6l-14.54-15.94a16.38,16.38,0,0,0,.76-3.31c1.26-9.83-5-22.07-14-27.62L120.42,320Z"/><path class="cls-27" d="M120.42,320l-2.29,17.87-.52-.32c-9.27-5.41-17.84-1.67-19.13,8.34a21.39,21.39,0,0,0-.13,3.68L82,347.52a43.89,43.89,0,0,1-.08-11.27c2.54-19.87,19.56-27.29,38-16.56Z"/><path class="cls-28" d="M131.31,368.8l14.55,15.94c-6,12.38-20.16,15.73-35.2,7s-26.4-27-28.64-44.19l16.32,2.06c.44,9.22,6.44,19.5,14.61,24.26s15.78,2.43,18.36-5Z"/><path class="cls-29" d="M262.43,421.35a4.65,4.65,0,0,0-2-4.33l-96.75-55.83c-1.31-.76-2.56-.05-2.77,1.58L160.5,366a4.64,4.64,0,0,0,2,4.33l96.75,55.83c1.32.76,2.56.05,2.77-1.58Z"/><path class="cls-29" d="M191.25,401a4.64,4.64,0,0,0-2-4.33l-28-16.11c-1.31-.76-2.56-.06-2.77,1.57l-.41,3.2a4.64,4.64,0,0,0,2,4.33l28,16.11c1.31.76,2.56.05,2.77-1.58Z"/><path class="cls-29" d="M271.77,447.53a4.62,4.62,0,0,0-2-4.32l-69-39.82c-1.32-.76-2.56-.05-2.77,1.58l-.42,3.19a4.67,4.67,0,0,0,2,4.33l69,39.81c1.32.76,2.56.06,2.77-1.58Z"/><path class="cls-29" d="M218.73,438.42a4.65,4.65,0,0,0-2-4.33L158.1,400.27c-1.32-.77-2.56-.06-2.77,1.57l-.41,3.2a4.61,4.61,0,0,0,2,4.32l58.63,33.83c1.31.76,2.55.05,2.77-1.58Z"/><path class="cls-29" d="M265.64,465.51a4.65,4.65,0,0,0-2-4.33l-34.23-19.75c-1.32-.76-2.56-.05-2.77,1.58l-.42,3.19a4.65,4.65,0,0,0,2,4.33l34.24,19.75c1.31.76,2.55.05,2.76-1.58Z"/><path class="cls-30" d="M118.33,698.48a4.77,4.77,0,0,1,4.89.27l46.8,27c3.57,2.06,6,7.32,5.42,11.74l-7.05,54.09a5.91,5.91,0,0,1-2.61,4.56h0l-.37.19L159.19,799l.2-5.74L115.2,767.78c-3.57-2.06-6-7.32-5.42-11.74l6.66-51-4.36-3.82,6.25-2.69Z"/><path class="cls-20" d="M175.43,737.49l-7.05,54.09a5.89,5.89,0,0,1-2.61,4.56l-.36.19L160,798.67l7.09-59.36,8.37-1.82Z"/><path class="cls-4" d="M168.84,740.37c.57-4.42-1.86-9.68-5.42-11.73l-46.79-27c-3.56-2-6.93-.14-7.5,4.28l-7,54.09c-.58,4.43,1.85,9.68,5.41,11.74l46.79,27c3.56,2,6.93.13,7.5-4.29Z"/><path class="cls-1" d="M185.34,158.88a4.79,4.79,0,0,1,4.89.28l46.8,27c3.57,2.06,6,7.32,5.42,11.74l-7,54.09a5.91,5.91,0,0,1-2.61,4.56h0l-.37.19-6.22,2.68.19-5.74-44.17-25.48c-3.57-2.06-6-7.32-5.43-11.74l6.66-51.06-4.36-3.81,6.25-2.7Z"/><path class="cls-2" d="M242.46,197.89,235.41,252a5.89,5.89,0,0,1-2.62,4.56l-.36.19L227,259.06l7.09-59.36Z"/><path class="cls-3" d="M235.85,200.77c.57-4.42-1.85-9.68-5.42-11.74l-46.79-27c-3.56-2.06-6.93-.14-7.5,4.28l-7,54.09c-.58,4.42,1.85,9.68,5.42,11.74l46.78,27c3.57,2.06,6.93.14,7.51-4.28l7-54.09Z"/><path class="cls-1" d="M320.14,810.45a4.79,4.79,0,0,1,4.89.28l46.8,27c3.57,2.06,6,7.32,5.42,11.74l-7.05,54.09a5.91,5.91,0,0,1-2.61,4.56h0c-.11.07-.24.13-.36.19L361,911l.2-5.74L317,879.76c-3.56-2.06-6-7.32-5.42-11.74L318.25,817l-4.36-3.81,6.25-2.7Z"/><path class="cls-2" d="M377.25,849.47l-7.05,54.09a5.89,5.89,0,0,1-2.61,4.56l-.36.18-5.44,2.35,7.09-59.37,8.37-1.81Z"/><path class="cls-3" d="M370.64,852.34c.58-4.42-1.85-9.68-5.41-11.74l-46.79-27c-3.57-2.06-6.93-.14-7.51,4.28l-7,54.09c-.58,4.42,1.85,9.68,5.41,11.74l46.79,27c3.56,2.06,6.93.14,7.5-4.28Z"/><path class="cls-1" d="M63.67.55a4.75,4.75,0,0,1,4.89.28l65.53,37.8c3.56,2,6,7.32,5.41,11.74L129.64,126a5.9,5.9,0,0,1-2.61,4.56h0a2.47,2.47,0,0,1-.36.19l-6.22,2.68.2-5.73L57.73,91.43c-3.57-2.05-6-7.31-5.42-11.73L61.78,7.06,57.42,3.24,63.67.55Z"/><path class="cls-2" d="M139.5,50.36,129.64,126a5.92,5.92,0,0,1-2.62,4.56l-.36.19-5.44,2.34,9.9-80.95,8.38-1.81Z"/><path class="cls-3" d="M132.9,53.24c.58-4.42-1.85-9.68-5.42-11.73L62,3.7C58.41,1.64,55.05,3.56,54.47,8L44.61,83.65C44,88.07,46.46,93.33,50,95.38l65.5,37.81c3.57,2.06,6.93.15,7.51-4.28l9.86-75.67Z"/><path class="cls-30" d="M201.83,722.16a4.79,4.79,0,0,1,4.89.28l25.67,14.79c3.57,2.06,6,7.32,5.42,11.74l-3.63,27.89a5.92,5.92,0,0,1-2.62,4.56h0l-.36.19L225,784.29l.2-5.74-23-13.28c-3.57-2.06-6-7.32-5.42-11.74l3.24-24.85-4.36-3.82,6.25-2.7Z"/><path class="cls-20" d="M237.81,749l-3.63,27.89a5.92,5.92,0,0,1-2.62,4.56l-.36.19L225.76,784l3.67-33.17,8.38-1.81Z"/><path class="cls-4" d="M231.2,751.84c.58-4.42-1.85-9.68-5.42-11.74l-25.65-14.8c-3.57-2.06-6.93-.14-7.51,4.28L189,757.47c-.58,4.42,1.85,9.68,5.42,11.74L220.06,784c3.57,2.06,6.93.14,7.5-4.28Z"/></g></g></svg>