<svg xmlns="http://www.w3.org/2000/svg" viewBox="0 0 564.57 930.09"><defs><style>.cls-1{fill:#a36fff;}.cls-2{fill:#ba93ff;}.cls-3{fill:#8038ff;}.cls-4{fill:#dbdbfa;}.cls-5{fill:#ceb2ff;}.cls-6{fill:#ffa299;}.cls-7{fill:#ff7e71;}.cls-8{fill:#ff301b;}.cls-9{fill:#a9bfff;}.cls-10{fill:#0082ff;}.cls-11{fill:#fffba4;}.cls-12{fill:#ffc800;}.cls-13{fill:#ffa9e2;}.cls-14{fill:#ff00a9;}.cls-15{fill:#d6dbe8;}</style></defs><title>Asset 17</title><g id="Layer_2" data-name="Layer 2"><g id="Layer_1-2" data-name="Layer 1"><g id="progress-window"><path id="screen" class="cls-1" d="M324.87,800.92c9.12-4.89,15.78-15.5,17.77-30.6l84.88-644.78c3.92-29.72-11.75-65.62-35-80.12L328.48,6.08c-11.72-7.33-23.14-7.8-32.08-2.65L257.59,24.26l8.58,5.36A56,56,0,0,0,263,42.4L173.89,689.1c-3.91,29.72,11.76,65.62,35,80.12l68.31,37.43a43.18,43.18,0,0,0,9,4.33l-1.51,11.52,40.21-21.58Z"/><path id="screen1" class="cls-2" d="M297.8,2.68,257.59,24.25l8.58,5.37A55.47,55.47,0,0,0,263,42.4L262,50l113.68,71,49.61-26.62C420,74,407.94,55,392.55,45.42L328.47,6.08c-11.11-6.95-22-7.74-30.67-3.4Z"/><path id="screen2" class="cls-3" d="M352.34,67c23.21,14.5,38.88,50.4,35,80.12L302.42,791.9c-3.92,29.72-25.94,42.07-49.15,27.57L185,782c-23.21-14.5-38.87-50.4-35-80.12l89.12-646.7c3.91-29.71,25.93-42.07,49.14-27.57L352.34,67Z"/><path class="cls-4" d="M325.31,205.88l-74.23-33.65L291.77,226l9.58,56.37,24-76.47Z"/><path class="cls-4" d="M301.22,400.64c-.1.75-.41,1-.94.63q-1.25-.76-1.54-6.92-.6-12.14-3.69-18.36t-11-11.15c-2-1.27-3.82-2.29-5.35-3L267.5,447.74c-.23,2.4.09,4.23,1,5.5s3.45,3.49,7.68,6.64a2.18,2.18,0,0,1,1.08,2.05c-.12.94-.79,1-2,.28q-.35-.21-1.68-1.2c-1.12-.8-2.05-1.43-2.81-1.91l-11.58-7.69-19.27-11.58c-1-.66-1.53-1.37-1.43-2.12.08-.57.27-.8.58-.71a40.27,40.27,0,0,1,3.77,2.05q6.24,3.6,7.15.5.47-1.69,4-28.53l7.86-59.74c-.81-.61-1.79-1.27-2.91-2q-9-5.64-13.72-4.06t-7.31,11.41c-1.07,3.81-2,5.46-2.85,4.94a2.16,2.16,0,0,1-.8-2.33c.1-.76.59-3.25,1.48-7.49q2.72-13.27,3.62-18.21l1.69,1.06,8.27,5q.35.21,7.82,5.19t19.12,12.25q6.44,4,11.54,7.06t9.29,5.65a59,59,0,0,0,5.69,3.25q-.87,9.39-1.39,24.5C301.32,399.23,301.27,400.26,301.22,400.64Z"/><path class="cls-4" d="M287.59,566.85a2.76,2.76,0,0,0-1.23-2.76l-76.28-47.66a3.17,3.17,0,0,0-3.18,0,3.74,3.74,0,0,0-2,2.76l-12.55,95.32a2.74,2.74,0,0,0,1.23,2.75l76.28,47.66a3.17,3.17,0,0,0,3.18,0,3.75,3.75,0,0,0,2-2.75ZM199,612.67l70.39,44,11.58-88-70.38-44Z"/></g><g id="progress-window1"><path id="screen3" class="cls-1" d="M511.1,797.53c6.69-3.59,11.58-11.39,13-22.48l15.47-117.47c2.87-21.83-8.64-48.2-25.68-58.85l-47.07-28.9c-8.61-5.38-17-5.73-23.56-1.94l-28.51,15.29,6.3,3.94a41.63,41.63,0,0,0-2.32,9.39L400.2,715.39c-2.87,21.83,8.63,48.2,25.68,58.85l50.18,27.5a32.11,32.11,0,0,0,6.61,3.18l-1.11,8.46,29.54-15.85Z"/><path id="screen4" class="cls-5" d="M444.32,567.34l-29.53,15.84,6.3,3.94a40.59,40.59,0,0,0-2.32,9.39l-.76,5.6,83.5,52.17L538,634.73c-3.86-15-12.73-28.94-24-36l-47.06-28.9C458.69,564.73,450.72,564.15,444.32,567.34Z"/><path id="screen5" class="cls-2" d="M484.39,614.58c17,10.65,28.55,37,25.68,58.85L494.6,790.9c-2.87,21.83-19.05,30.9-36.09,20.25l-50.18-27.49c-17.05-10.65-28.56-37-25.68-58.85l18.57-118.88c2.88-21.83,19-30.9,36.1-20.25Z"/></g><g id="progress-window2"><path id="screen6" class="cls-6" d="M152,379.35c6.7-3.59,11.59-11.39,13.05-22.48l8.17-62.05c2.88-21.83-8.63-48.2-25.68-58.86l-47.07-28.89c-8.61-5.38-17-5.73-23.56-1.94L48.35,220.42l6.31,3.94a40.46,40.46,0,0,0-2.32,9.39L41.06,297.22c-2.88,21.82,8.63,48.2,25.68,58.85l50.17,27.49a32.18,32.18,0,0,0,6.62,3.18l-1.11,8.46L152,379.35Z"/><path id="screen7" class="cls-7" d="M77.88,204.58,48.35,220.42l6.3,3.94a41.5,41.5,0,0,0-2.32,9.39l-.76,5.59,83.5,52.18L171.51,272c-3.86-15-12.72-28.94-24-36l-47.07-28.89C92.25,202,84.28,201.39,77.88,204.58Z"/><path id="screen8" class="cls-8" d="M118,251.81c17,10.66,28.56,37,25.68,58.86l-8.17,62.05c-2.87,21.83-19.05,30.91-36.1,20.25L49.19,365.49c-17-10.66-28.55-37-25.68-58.86l11.28-63.46c2.87-21.83,19-30.9,36.09-20.25L118,251.81Z"/></g><path class="cls-4" d="M60.42,505,14.57,529.09l13.87,25.28,44.68-25.53,7.14,46.1L140,477.82l-110-13Z"/><path class="cls-9" d="M502,293.2l-21.12,8,5.26,4.95a42.29,42.29,0,0,0-4.68,14.6c-3.47,24.05,9.16,52.58,28.2,63.62a32.2,32.2,0,0,0,11,4.07l-3.72,4.69,18.75-6.94c8.86-3.52,15.52-12.79,17.45-26.36,3.49-24.14-9.13-52.62-28.17-63.68C516.73,291.41,508.73,290.64,502,293.2Z"/><path class="cls-10" d="M463.39,327.6c-3.47,24,9.16,52.58,28.21,63.61s37.28.51,40.71-23.53-9.13-52.62-28.18-63.68S466.84,303.5,463.39,327.6Z"/><path class="cls-11" d="M487.58,413.41l-21.11,8,5.25,4.95A42.51,42.51,0,0,0,467,441c-3.47,24.06,9.16,52.58,28.21,63.62a31.91,31.91,0,0,0,10.95,4.07l-3.73,4.69,18.76-6.94c8.85-3.51,15.52-12.79,17.45-26.36,3.49-24.14-9.13-52.62-28.17-63.68C502.36,411.62,494.35,410.85,487.58,413.41Z"/><path class="cls-12" d="M449,447.81c-3.46,24.05,9.17,52.58,28.21,63.62s37.28.5,40.71-23.53-9.13-52.63-28.17-63.68S452.46,423.71,449,447.81Z"/><path class="cls-13" d="M512.9,171.31l-21.12,8,5.26,4.95a42.3,42.3,0,0,0-4.69,14.6c-3.46,24.06,9.17,52.58,28.21,63.62a32,32,0,0,0,11,4.07l-3.72,4.7,18.75-6.95c8.86-3.51,15.52-12.79,17.45-26.36,3.49-24.13-9.13-52.62-28.17-63.68-8.15-4.73-16.16-5.51-22.92-2.95Z"/><path class="cls-14" d="M474.33,205.71c-3.47,24,9.16,52.58,28.2,63.62s37.29.5,40.72-23.53-9.14-52.63-28.18-63.68S477.78,181.61,474.33,205.71Z"/><path class="cls-15" d="M300.33,919.23c-22.74,13.13-57.18,14.55-76.87,3.19L105.54,854.33C85.85,843,88.32,823.08,111.06,810l4-2.33c22.73-13.13,57.17-14.56,76.86-3.19l117.92,68.08c19.69,11.37,17.22,31.25-5.51,44.38l-4,2.33Z"/><path class="cls-15" d="M461.4,883.11c-12.29,7.09-30.91,7.87-41.55,1.72L356.1,848c-10.64-6.15-9.3-16.9,3-24l2.18-1.26c12.29-7.1,30.91-7.87,41.55-1.72l63.75,36.8c10.64,6.14,9.3,16.89-3,24l-2.19,1.26Z"/><path class="cls-15" d="M112.48,684.09c-12.29,7.09-30.91,7.86-41.55,1.72L7.18,649c-10.64-6.14-9.3-16.89,3-24l2.18-1.26c12.29-7.1,30.91-7.87,41.55-1.73l63.74,36.81c10.65,6.14,9.31,16.89-3,24l-2.18,1.27Z"/></g></g></svg>