<svg xmlns="http://www.w3.org/2000/svg" xmlns:xlink="http://www.w3.org/1999/xlink" viewBox="0 0 783.38 790.21"><defs><style>.cls-1{fill:none;}.cls-2{fill:#d6dbe8;}.cls-3{fill:#35519a;}.cls-4{clip-path:url(#clip-path);}.cls-5{fill:#00687a;}.cls-6{fill:#3d5eb3;}.cls-7{fill:#b7c4ee;}.cls-8{fill:#748dde;}.cls-9{fill:#002c33;fill-opacity:0.31;}.cls-10{fill:#b5b5f5;}.cls-11{fill:#cacaf8;}.cls-12{fill:#a2a2f2;}.cls-13{fill:#7c7ec5;}.cls-14{fill:#4e51b1;}.cls-15{fill:#dbdbfa;}.cls-16{fill:#ababf3;}.cls-17{fill:#5a5db6;}.cls-18{fill:#ff4088;}.cls-19{fill:#fd005f;}.cls-20{fill:#b480ff;}.cls-21{fill:#bfdfff;}.cls-22{fill:#c69eff;}</style><clipPath id="clip-path"><path class="cls-1" d="M268.94,300.5c15.53-9.41,39.07-10.43,52.53-2.28L774.29,572.43c13.46,8.14,11.77,22.4-3.77,31.8L514.44,759.3c-15.54,9.41-39.07,10.43-52.53,2.29L9.08,487.38c-13.45-8.15-11.76-22.4,3.77-31.81Z"/></clipPath></defs><title>Asset 13</title><g id="Layer_2" data-name="Layer 2"><g id="Layer_1-2" data-name="Layer 1"><g id="drawing-pad"><path class="cls-2" d="M253,334.85c20.1-12.17,50.54-13.49,67.94-3L761,598.35c17.4,10.54,15.22,29-4.87,41.14L523.86,780.14c-20.1,12.17-50.54,13.49-67.94,3l-440-266.46c-17.4-10.54-15.22-29,4.87-41.14L253,334.85Z"/><path class="cls-3" d="M268.94,300.5c15.53-9.41,39.07-10.43,52.53-2.28L774.29,572.43c13.46,8.14,11.77,22.4-3.77,31.8L514.44,759.3c-15.54,9.41-39.07,10.43-52.53,2.29L9.08,487.38c-13.45-8.15-11.76-22.4,3.77-31.81Z"/><g class="cls-4"><path class="cls-5" d="M783.38,570.77l-9.17,5.55v27.49l9.17-5.55Z"/></g><path class="cls-6" d="M782.77,582.25l.61-.36v4.34h0c0,6.25-4.36,12.85-12.85,18L514.44,759.3a47.21,47.21,0,0,1-5.48,2.84v-25.2L777.24,574.49a16.51,16.51,0,0,1,5.53,7.76Z"/><path class="cls-7" d="M268.94,296.56c15.53-9.41,39.07-10.43,52.53-2.28l452.82,274.2c13.46,8.15,11.77,22.4-3.77,31.81L514.44,755.36c-15.54,9.41-39.07,10.43-52.53,2.29L9.08,483.44c-13.45-8.15-11.76-22.4,3.77-31.81Z"/><path class="cls-8" d="M546.24,670.28c2.57,1.56,2.86,3.92.62,5.28l-49.39,29.91c-2.23,1.35-6.14,1.18-8.72-.38l-26.46-16c-2.58-1.56-2.86-3.92-.63-5.28l49.4-29.91c2.23-1.35,6.14-1.18,8.71.38Z"/><path class="cls-8" d="M692.06,582c2.57,1.56,2.85,3.92.62,5.28l-49.39,29.91c-2.24,1.35-6.14,1.18-8.72-.38l-26.46-16c-2.58-1.56-2.86-3.92-.63-5.27l49.4-29.92c2.23-1.35,6.13-1.18,8.71.38Z"/><path class="cls-6" d="M542.25,670.79c2.58,1.56,2.86,3.92.62,5.27l-3.75,2.28c-2.23,1.35-6.14,1.18-8.72-.38l-23.32-14.12c-2.58-1.57-2.86-3.93-.62-5.28l3.75-2.28c2.24-1.35,6.14-1.18,8.72.38Z"/><path class="cls-6" d="M528.64,679c2.58,1.56,2.86,3.93.63,5.28l-3.76,2.27c-2.23,1.35-6.14,1.18-8.72-.38l-23.31-14.12c-2.58-1.56-2.87-3.92-.63-5.28l3.75-2.27c2.23-1.36,6.14-1.19,8.72.38Z"/><path class="cls-6" d="M515,687.25c2.58,1.56,2.86,3.93.63,5.28l-3.76,2.28c-2.23,1.35-6.13,1.18-8.71-.39l-23.33-14.11c-2.57-1.57-2.85-3.93-.62-5.28l3.76-2.28c2.23-1.35,6.13-1.18,8.71.38Z"/><path class="cls-6" d="M501.44,695.49c2.58,1.56,2.86,3.92.63,5.27L498.31,703c-2.23,1.35-6.13,1.18-8.71-.38l-23.32-14.12c-2.58-1.56-2.86-3.93-.63-5.28l3.76-2.27c2.23-1.36,6.14-1.19,8.72.37Z"/><path class="cls-6" d="M688.07,582.48c2.58,1.56,2.86,3.93.63,5.28L684.94,590c-2.23,1.35-6.14,1.18-8.72-.38L652.9,575.53c-2.58-1.56-2.86-3.92-.62-5.27L656,568c2.23-1.35,6.14-1.18,8.72.38Z"/><path class="cls-6" d="M674.46,590.72c2.58,1.56,2.86,3.92.63,5.28l-3.76,2.27c-2.24,1.35-6.14,1.18-8.72-.38l-23.32-14.12c-2.58-1.56-2.86-3.93-.62-5.28l3.75-2.27c2.24-1.36,6.14-1.19,8.72.38Z"/><path class="cls-6" d="M660.88,599c2.57,1.56,2.85,3.93.62,5.28l-3.76,2.27c-2.23,1.36-6.14,1.19-8.71-.38L625.71,592c-2.58-1.56-2.86-3.92-.63-5.28l3.76-2.27c2.23-1.35,6.14-1.18,8.71.38Z"/><path class="cls-6" d="M647.26,607.19c2.58,1.56,2.86,3.92.63,5.27l-3.76,2.28c-2.23,1.35-6.14,1.18-8.71-.38L612.1,600.24c-2.58-1.56-2.86-3.93-.63-5.28l3.76-2.28c2.23-1.35,6.14-1.18,8.72.38Z"/><path class="cls-8" d="M275.25,334.08c12.12-7.34,30.48-8.14,41-1.78l305.7,185.11c10.5,6.36,9.18,17.48-2.94,24.82l-199.78,121c-12.12,7.34-30.48,8.14-41,1.78L72.54,479.87c-10.5-6.36-9.18-17.47,2.94-24.81l199.77-121Z"/><path class="cls-3" d="M623.94,636.79c-.34-6.5-4.62-12.92-12.8-17.87-17.17-10.4-45-10.4-62.22,0-8.18,5-12.46,11.37-12.8,17.87-.47-7.13,3.81-14.36,12.8-19.81,17.17-10.39,45.05-10.39,62.22,0C620.13,622.43,624.41,629.66,623.94,636.79Z"/><path class="cls-8" d="M623.94,636.79c-.34,6.5-4.62,12.92-12.8,17.87-17.17,10.4-45,10.4-62.22,0-8.18-4.95-12.46-11.37-12.8-17.87.34-6.5,4.62-12.92,12.8-17.87,17.17-10.4,45.05-10.4,62.22,0C619.32,623.87,623.6,630.29,623.94,636.79Z"/><path class="cls-3" d="M601.87,636.74c-.26-3.1-2.39-6.14-6.29-8.5-8.59-5.21-22.52-5.21-31.11,0-3.91,2.36-6,5.4-6.3,8.5-.51-3.7,1.62-7.49,6.3-10.33,8.59-5.19,22.52-5.19,31.11,0C600.26,629.25,602.39,633,601.87,636.74Z"/><path class="cls-6" d="M601.87,636.74c-.26,3.11-2.39,6.15-6.29,8.51-8.59,5.2-22.52,5.2-31.11,0-3.91-2.36-6-5.4-6.3-8.51.26-3.1,2.39-6.14,6.3-8.5,8.59-5.21,22.52-5.21,31.11,0C599.48,630.6,601.61,633.64,601.87,636.74Z"/></g><g id="pen"><path class="cls-9" d="M416.92,387.71c2.23-3,13.91-18.73,15.8-18.22s4.14,19.92,4.56,23.67a4.58,4.58,0,0,1,.08.62h0a4.57,4.57,0,0,1-.05.83h0a5.28,5.28,0,0,1-.21.78L366.45,659.06c-.27,1.62-1.51,3-3.65,3.81l-.91,3.42c-.22,1.39-1.38,2.55-3.37,3.12A12.74,12.74,0,0,1,347,666.33a4.37,4.37,0,0,1-1.46-4.09l1-3.75a5.3,5.3,0,0,1-1.35-4.71l71-264.83h0a4.65,4.65,0,0,1,.37-.74h0A4.29,4.29,0,0,1,416.92,387.71Z"/><path class="cls-10" d="M408.44,374.32s14.34-20.6,16.46-20,4.73,26,4.73,26l-21.19-6Z"/><path class="cls-11" d="M335.76,658.05,408,375.11h0a6.06,6.06,0,0,1,4.25-3.5c4.89-1.46,11.72.46,15.25,4.29a6.44,6.44,0,0,1,2,5.26h0a4.5,4.5,0,0,1-.22.82L357.3,664.1Z"/><path class="cls-12" d="M352.93,668c-4.88,1.46-11.71-.46-15.25-4.29s-2.43-8.12,2.46-9.58,11.71.45,15.24,4.28S357.82,666.54,352.93,668Z"/><path class="cls-11" d="M337.91,660l.08-.32h0a4.66,4.66,0,0,1,3.27-2.69,12.58,12.58,0,0,1,11.72,3.3,4.93,4.93,0,0,1,1.55,4h0a3.53,3.53,0,0,1-.16.64l-1.71,6.77-16.56-4.66,1.79-7.08Z"/><path class="cls-12" d="M349.32,674.74a12.55,12.55,0,0,1-11.72-3.3c-2.71-2.94-1.87-6.25,1.88-7.37a12.59,12.59,0,0,1,11.73,3.29C353.92,670.31,353.08,673.61,349.32,674.74Z"/></g><path class="cls-13" d="M614.53,19.26C578-1.82,544.76-5,519.81,6.82L469.24,35.46v.1c24.91-11.57,58-8.29,94.28,12.66C641,93,703.79,201.28,703.79,290.17c0,43.15-14.8,73.79-38.88,88.79l43.94-25.13c28.23-13.14,46-45.39,46-92.62C754.81,172.32,692,64,614.53,19.26Z"/><path class="cls-14" d="M746.05,200.05l-50.9,29.38c5.59,20.61,8.65,41.15,8.65,60.75,0,43.15-14.8,73.79-38.89,88.79l43.94-25.13c28.23-13.14,46-45.39,46-92.62C754.81,241.49,751.71,220.8,746.05,200.05Z"/><path class="cls-15" d="M703.79,290.17c0,88.9-62.8,124.71-140.27,80S423.24,217.1,423.24,128.2s62.81-124.71,140.28-80S703.79,201.28,703.79,290.17Z"/><path class="cls-16" d="M526.64,343.24c-23.71-21.08-44.94-47.69-61.89-76.77l97.56-56.33Z"/><path class="cls-13" d="M677.07,274.75c0,72-50.84,100.95-113.56,64.75S450,215.6,450,143.63,500.8,42.68,563.51,78.89,677.07,202.79,677.07,274.75Z"/><path class="cls-15" d="M655.56,262.33c0,58.33-41.21,81.82-92,52.48s-92-100.43-92-158.76,41.2-81.82,92-52.47,92,100.42,92,158.75Z"/><path class="cls-13" d="M635.23,250.59c0,45.46-32.11,63.76-71.72,40.9s-71.72-78.26-71.72-123.71S523.9,104,563.51,126.89s71.72,78.25,71.72,123.7Z"/><path class="cls-15" d="M616.11,239.56c0,33.33-23.55,46.76-52.6,30s-52.59-57.39-52.59-90.72,23.55-46.76,52.59-30,52.6,57.39,52.6,90.72Z"/><path class="cls-17" d="M533.51,317.58c-19.14-17.05-36.25-38.53-49.93-62l78.72-45.45Z"/><path class="cls-16" d="M539.05,296.92c-15.44-13.79-29.25-31.13-40.3-50.08l63.55-36.7-23.25,86.78Z"/><path class="cls-17" d="M544.28,277.39a162.45,162.45,0,0,1-31.21-38.83l49.24-28.43Z"/><path class="cls-16" d="M549.2,259a119.22,119.22,0,0,1-22.65-28.25l35.75-20.64Z"/><path class="cls-18" d="M592.78,226.09c0,18.55-13.1,26-29.27,16.69s-29.26-31.93-29.26-50.48,13.1-26,29.26-16.69S592.78,207.55,592.78,226.09Z"/><path class="cls-19" d="M555.21,236.61A66.68,66.68,0,0,1,543,221.29l19.32-11.15Z"/><path class="cls-20" d="M301.24,362.89l-15.08-2c-8.25-1.11-9-12.75-1-14.94l84.55-23.11Z"/><path class="cls-21" d="M290.27,361.81l.23-.29s218.3-128,242.18-141.84c16.75-9.69,28.38-10.82,28.38-10.82l.61.07a1.89,1.89,0,0,1,.88,1.5l-.24.56s-6.82,9.28-23.52,18.95c-23.85,13.82-242.2,141.78-242.2,141.78l-.12,0a2.9,2.9,0,0,1-3-.27,9.22,9.22,0,0,1-4.2-7.23,3,3,0,0,1,1-2.43Z"/><path class="cls-22" d="M299.83,357.13l69.92-40.29-54.57-4.47c-20.44-1.67-33.15,21.73-20.61,38Z"/><path class="cls-22" d="M304.22,364.68l1.72,6.17c4.58,16.47,26.5,19.73,35.67,5.31L374.15,325Z"/></g></g></svg>