<svg xmlns="http://www.w3.org/2000/svg" viewBox="0 0 569.67 817"><defs><style>.cls-1{fill:#abd5ff;}.cls-2{fill:#86c3ff;}.cls-3{fill:#d9ecff;}.cls-4{fill:#00abff;}.cls-5{fill:#009ce9;}.cls-6{fill:#e9007c;}.cls-7{fill:#c30068;}.cls-8{fill:#b5daff;}.cls-9{fill:#d6dbe8;}.cls-10{fill:#dbdbfa;}.cls-11{fill:#cacaf8;}.cls-12{fill:#f0f0fd;}</style></defs><title>Asset 18</title><g id="Layer_2" data-name="Layer 2"><g id="Layer_1-2" data-name="Layer 1"><path class="cls-1" d="M514.78,231.72,211.83,54.41,186.9,68.78l303,177.31L441.33,626.41,466.26,612Z"/><path class="cls-2" d="M514.78,231.72l-24.93,14.37L441.33,626.41,466.26,612l48.52-380.32Z"/><path class="cls-3" d="M489.84,246.09,186.89,68.78,138.37,449.1l303,177.31Z"/><path class="cls-4" d="M464.34,260.81l-259-151.57L172.64,365.67l259,151.57Z"/><path class="cls-5" d="M317.08,308.48,189.47,233.8,172.64,365.67l127.61,74.68Z"/><path class="cls-6" d="M346.42,442,283.33,269.65l-88.61,83.59Z"/><path class="cls-7" d="M270.85,281.43l21.37,12.51L312,348.05l-8.77,68.71L194.73,353.24Z"/><path class="cls-6" d="M417.82,474.74l8.09-64.46L376.22,274.52l-51.07,48.17,47,125.31Z"/><path class="cls-8" d="M189.47,233.8l-22-12.87-29.26,229.3,22,12.87Z"/><path class="cls-8" d="M300.26,440.35,150.66,352.8l-12.27,96.27L288,536.61l12.28-96.26Z"/><path class="cls-1" d="M252.36,345.87,59.47,233,43.6,242.12,236.49,355l-30.9,242.15L221.47,588Z"/><path class="cls-2" d="M252.36,345.87,236.49,355l-30.9,242.15L221.47,588Z"/><path class="cls-3" d="M236.48,355,43.59,242.12,12.7,484.27,205.59,597.16Z"/><path class="cls-4" d="M220.25,364.39,55.35,267.88,34.52,431.14l164.9,96.51Z"/><path class="cls-6" d="M145.17,479.77,105,370,48.58,423.24Z"/><path class="cls-6" d="M190.63,500.6l5.15-41.05-31.64-86.44-32.51,30.67,29.91,79.79Z"/><path class="cls-9" d="M351.69,810.38c-13.86,8-34.86,8.87-46.87,1.94L8.1,641C-3.9,634.08-2.39,622,11.47,614l2.46-1.42c13.87-8,34.87-8.88,46.87-1.94L357.52,781.9c12,6.93,10.5,19.05-3.36,27.06Z"/><path class="cls-10" d="M271.87,585.35a4.81,4.81,0,0,1,4.9.28l65.52,37.8c3.57,2.06,6,7.32,5.42,11.74l-9.87,75.67a5.89,5.89,0,0,1-2.61,4.56h0l-.36.19-6.23,2.68.2-5.74-62.9-36.29c-3.57-2.06-6-7.32-5.42-11.74L270,591.86l-4.37-3.81,6.25-2.7Z"/><path class="cls-11" d="M347.71,635.17l-9.87,75.67a5.89,5.89,0,0,1-2.61,4.56l-.37.19-5.43,2.34,9.9-80.95,8.38-1.81Z"/><path class="cls-12" d="M341.1,638.05c.57-4.42-1.86-9.68-5.42-11.74L270.17,588.5c-3.57-2.06-6.93-.14-7.51,4.28l-9.86,75.67c-.58,4.42,1.85,9.68,5.42,11.74L323.73,718c3.56,2.06,6.93.14,7.5-4.28Z"/><path class="cls-10" d="M29.1.83c2.06-1.19,4.71-1.15,7.43.43l99.53,57.42c5.42,3.12,9.11,11.11,8.23,17.83l-15,114.94c-.44,3.34-1.92,5.74-4,6.93h0c-.18.1-.37.2-.55.28l-9.46,4.08.3-8.72L20.08,138.89c-5.42-3.12-9.11-11.11-8.23-17.83L26.23,10.72,19.6,4.93,29.1.83Z"/><path class="cls-11" d="M144.29,76.51l-15,114.94c-.43,3.34-1.92,5.74-4,6.93l-.55.28-8.26,3.56,15-123Z"/><path class="cls-12" d="M134.25,80.88c.88-6.71-2.81-14.71-8.23-17.83L26.51,5.61C21.1,2.49,16,5.4,15.11,12.12L.13,127.06c-.88,6.72,2.81,14.71,8.23,17.83l99.51,57.44c5.41,3.13,10.53.21,11.4-6.5Z"/><path class="cls-10" d="M525.84,365.17a2.77,2.77,0,0,1,2.82.16l37.83,21.83a7.27,7.27,0,0,1,3.13,6.77l-5.7,43.69a3.38,3.38,0,0,1-1.5,2.63h0l-.2.11-3.6,1.55.12-3.32-36.32-20.95a7.28,7.28,0,0,1-3.13-6.77l5.47-41.94-2.52-2.2,3.61-1.56Z"/><path class="cls-11" d="M569.62,393.93l-5.7,43.69a3.39,3.39,0,0,1-1.51,2.63l-.21.11-3.14,1.35L564.78,395l4.84-1.05Z"/><path class="cls-12" d="M565.81,395.6a7.28,7.28,0,0,0-3.13-6.78L524.86,367c-2.06-1.19-4-.08-4.33,2.47l-5.7,43.69a7.27,7.27,0,0,0,3.13,6.77l37.82,21.83c2.06,1.19,4,.08,4.33-2.47Z"/></g></g></svg>