<svg xmlns="http://www.w3.org/2000/svg" xmlns:xlink="http://www.w3.org/1999/xlink" viewBox="0 0 568.13 813.49"><defs><style>.cls-1{fill:none;}.cls-2{fill:#d6dbe8;}.cls-3{fill:#9eb0de;}.cls-4{clip-path:url(#clip-path);}.cls-5{fill:#bcd7ff;}.cls-6{fill:#b7c4ee;}.cls-7{clip-path:url(#clip-path-2);}.cls-8{fill:#cacaf8;}.cls-9{fill:#dbdbfa;}.cls-10{fill:#f3f3fd;}.cls-11{fill:#8038ff;}.cls-12{fill:#6629d0;}.cls-13{fill:#5e60b8;}.cls-14{fill:#6d6fbf;}.cls-15{fill:#3b3d86;}.cls-16{fill:#b7c4ef;}.cls-17{fill:#9eb0e9;}.cls-18{fill:#e3e6f9;}.cls-19{fill:#fa0069;}.cls-20{fill:#d8dff6;}.cls-21{clip-path:url(#clip-path-3);}.cls-22{fill:#69a5ff;}.cls-23{clip-path:url(#clip-path-4);}.cls-24{fill:#adbcec;}.cls-25{fill:#7f97d3;}.cls-26{fill:#9baedd;}.cls-27{fill:#5877c6;}.cls-28{fill:#f0f0fd;}.cls-29{fill:#b8c5e7;}</style><clipPath id="clip-path"><path class="cls-1" d="M332.56,617.77,334.7,619l-9.46,12.55-79-45.62a2.13,2.13,0,0,1-.46-.27h0a3.45,3.45,0,0,1-1.15-2.88,10.47,10.47,0,0,1,4.2-7.81h0a5,5,0,0,1,.49-.31l27.77-16c8.28-4.78,15.78-13,21.21-22.4s8.8-20,8.8-29.57a28.89,28.89,0,0,0-1.74-9.75,23.89,23.89,0,0,0-4.36-7.66l0,0L215.42,388.8c-1.21-1.41-1-4.28.45-6.88h0a10.8,10.8,0,0,1,.88-1.39c2-2.65,4.6-3.71,6.12-2.56l78.48,45.31-4.83,2.79.69,5.65,78.86,92.7L382.2,528l4.49,14,4.05,2.38-1.31,6.13,1.31,4.08-1.94-1.14-1.12,5.23,3.06,1.77L369.61,595l1.18.68-38.23,22.07Z"/></clipPath><clipPath id="clip-path-2"><path class="cls-1" d="M248.1,575.52l83.17,48-6,8-79.49-45.89h0a3.45,3.45,0,0,1-1.15-2.88A10.53,10.53,0,0,1,248.1,575.52Z"/></clipPath><clipPath id="clip-path-3"><path class="cls-1" d="M417.21,754.11c0-8.93-52.77-38.84-87.24-14.85-25.1,17.48-25.62,36.48-24.74,40.24,2.55,10.89,25,22.91,33.44,23.61,11.91,1,21.19-6.3,37.79-15.79,20.24-11.56,40.75-24,40.75-33.21Z"/></clipPath><clipPath id="clip-path-4"><path class="cls-1" d="M360.78,730.14c-10.67.05-21.42,2.58-30.81,9.12-25.1,17.48-25.61,36.48-24.73,40.24,2.55,10.89,25,22.91,33.44,23.6,11.9,1,21.19-6.3,37.79-15.78,20.23-11.57,40.74-24,40.74-33.21-16.13-9.38-21.31,7.28-56.1-12.9a27.08,27.08,0,0,1-3.83-3.16c-1.44-2.88,0-6.18,3.5-7.91Z"/></clipPath></defs><title>computer-screen1</title><g id="Layer_2" data-name="Layer 2"><g id="Layer_1-2" data-name="Layer 1"><g id="computer-screen1"><path class="cls-2" d="M369.35,637.17c-16.35,9.43-41.1,10.46-55.26,2.29L263.77,610.4c-14.15-8.17-12.37-22.46,4-31.9S308.84,568,323,576.22l50.32,29C387.47,613.44,385.69,627.73,369.35,637.17Z"/><path class="cls-3" d="M332.56,617.77,334.7,619l-9.46,12.55-79-45.62a2.13,2.13,0,0,1-.46-.27h0a3.45,3.45,0,0,1-1.15-2.88,10.47,10.47,0,0,1,4.2-7.81h0a5,5,0,0,1,.49-.31l27.77-16c8.28-4.78,15.78-13,21.21-22.4s8.8-20,8.8-29.57a28.89,28.89,0,0,0-1.74-9.75,23.89,23.89,0,0,0-4.36-7.66l0,0L215.42,388.8c-1.21-1.41-1-4.28.45-6.88h0a10.8,10.8,0,0,1,.88-1.39c2-2.65,4.6-3.71,6.12-2.56l78.48,45.31-4.83,2.79.69,5.65,78.86,92.7L382.2,528l4.49,14,4.05,2.38-1.31,6.13,1.31,4.08-1.94-1.14-1.12,5.23,3.06,1.77L369.61,595l1.18.68-38.23,22.07Z"/><g class="cls-4"><path class="cls-5" d="M219.14,375.81l-12.73,7.34,89.91,51.91,12.73-7.34Z"/></g><path class="cls-6" d="M248.1,575.52l83.17,48-6,8-79.49-45.89h0a3.45,3.45,0,0,1-1.15-2.88A10.53,10.53,0,0,1,248.1,575.52Z"/><g class="cls-7"><path class="cls-5" d="M219.14,375.81l-12.73,7.34,89.91,51.91,12.73-7.34Z"/></g><path class="cls-8" d="M379.9,534.79l-85.53-100.4c-1.42-1.68-.82-5.38,1.34-8.27s5.06-3.88,6.49-2.21L387.71,524.3a29.85,29.85,0,0,1,5.43,9.53,38.57,38.57,0,0,1,2.25,13c0,12.54-4.41,26.46-11.53,38.8s-17,23.13-27.84,29.4l-27.78,16c-2.59,1.5-4.69.29-4.69-2.7a10.37,10.37,0,0,1,4.69-8.12l27.78-16c8.27-4.78,15.77-13,21.2-22.4s8.8-20,8.8-29.57a28.71,28.71,0,0,0-1.74-9.76,24.17,24.17,0,0,0-4.35-7.66h0Z"/><path class="cls-9" d="M158.83.9c2.24-1.29,5.1-1.24,8,.46L559.09,227.57c5.85,3.38,9.84,12,8.9,19.28L523.2,590.48c-.47,3.61-2.08,6.21-4.3,7.49h0a5.59,5.59,0,0,1-.6.3l-12.06,6.19.32-9.43L118.65,371.3c-5.86-3.38-9.85-12-8.9-19.29L153.89,13.37l-7.17-6.26L158.83.9Z"/><path class="cls-8" d="M567.06,254,523.2,590.47c-.47,3.61-2.07,6.21-4.29,7.49l-11.44,5.86-1.22.48,44-343.68Z"/><path class="cls-10" d="M555.32,253.35c.95-7.26-3-15.91-8.9-19.29L154.21,7.85c-5.86-3.38-11.39-.23-12.34,7L97.08,358.51c-.94,7.26,3,15.9,8.91,19.28L498.2,604c5.86,3.38,11.39.23,12.33-7l44.79-343.62Z"/><path class="cls-11" d="M551.29,254.38c.94-7.2-3-15.76-8.83-19.11L153.7,11c-5.81-3.35-11.29-.22-12.23,7L97.08,358.62c-.94,7.2,3,15.76,8.82,19.11L494.67,602c5.81,3.35,11.28.22,12.22-7Z"/><path class="cls-12" d="M479.87,199.17l61,35.19L516.67,418.2c-1.59,12.08-10.54,17.1-20,11.21l-27.77-15.22c-9.43-5.89-15.8-20.48-14.21-32.56l25.15-182.46Z"/><g id="progress-window4"><path id="screen13" class="cls-13" d="M483.5,446.29c3.7-2,6.41-6.3,7.22-12.44l34.51-262.08c1.58-12.08-4.78-26.68-14.22-32.57l-26-16c-4.77-3-9.41-3.17-13-1.08l-15.78,8.47,3.49,2.18a22.75,22.75,0,0,0-1.28,5.2L422.13,400.84c-1.59,12.07,4.78,26.67,14.21,32.56l27.77,15.22a17.69,17.69,0,0,0,3.66,1.76l-.62,4.68,16.35-8.77Z"/><path id="screen14" class="cls-14" d="M472.49,121.83l-16.34,8.77,3.49,2.18a22.36,22.36,0,0,0-1.29,5.2l-.42,3.09,46.2,28.87,20.17-10.82c-2.13-8.28-7-16-13.29-19.92l-26.05-16c-4.52-2.82-8.93-3.14-12.47-1.38Z"/><path id="screen15" class="cls-15" d="M494.66,148c9.44,5.89,15.8,20.49,14.22,32.56L474.37,442.62c-1.59,12.08-10.54,17.1-20,11.2l-27.77-15.21c-9.43-5.89-15.8-20.49-14.21-32.56l36.22-262.87c1.59-12.08,10.54-17.1,20-11.2l26,16Z"/><path class="cls-9" d="M483.68,204.43l-30.17-13.68,16.54,21.85,3.89,22.91Z"/><path class="cls-9" d="M473.88,283.59c0,.31-.17.39-.38.26s-.55-1.15-.63-2.82a19.45,19.45,0,0,0-1.5-7.46A11.75,11.75,0,0,0,466.9,269c-.83-.52-1.56-.93-2.18-1.24l-4.55,34.93a3.35,3.35,0,0,0,.4,2.24,17.25,17.25,0,0,0,3.13,2.7.9.9,0,0,1,.44.83c-.05.38-.32.42-.81.11a5.92,5.92,0,0,1-.68-.48c-.46-.33-.84-.59-1.15-.78l-4.7-3.13-7.84-4.7c-.43-.27-.62-.56-.58-.86s.11-.33.24-.29a17,17,0,0,1,1.53.83c1.69,1,2.66,1.05,2.91.2q.18-.69,1.62-11.59l3.2-24.28c-.33-.25-.73-.52-1.19-.81q-3.68-2.3-5.57-1.65t-3,4.64c-.44,1.55-.83,2.22-1.16,2a.88.88,0,0,1-.33-1c0-.31.24-1.32.6-3q1.11-5.4,1.48-7.41l.68.43,3.37,2L456,260.9q3,2,7.77,5c1.75,1.09,3.31,2.05,4.7,2.87s2.64,1.59,3.77,2.3a22.28,22.28,0,0,0,2.31,1.31q-.35,3.83-.56,10c0,.69-.05,1.11-.07,1.26Z"/><path class="cls-9" d="M468.35,351.14a1.12,1.12,0,0,0-.5-1.12l-31-19.37a1.31,1.31,0,0,0-1.3,0,1.5,1.5,0,0,0-.79,1.12l-5.1,38.74a1.14,1.14,0,0,0,.5,1.13l31,19.37a1.31,1.31,0,0,0,1.3,0,1.52,1.52,0,0,0,.79-1.13l5.1-38.74Zm-36,18.63L461,387.64l4.7-35.75L437.05,334Z"/></g><path class="cls-12" d="M138.49,40.81l-21.16,162.4,54.75,31.55c-8,26.85-20.06,36.59-32.84,42.24,30.16,3.06,52.17-4.45,64.81-24.14l155.53,84.4c20.58,11.66,39.89.17,43.1-25.65l8.83-69c3.21-25.81-10.89-56.23-31.47-67.89L138.49,40.81Z"/><path class="cls-16" d="M360.17,353.72c7.8-4.65,13.44-14,15-26.88l8.83-69c3.21-25.82-10.89-56.24-31.48-67.89L100.09,50c-10.19-5.76-18.42-4.54-27.82-1.36C60.59,52.55,30,73.64,30,73.64l-9.81,77,17.15-10.21-1.42,11.45c-3.21,25.81,10.9,56.23,31.48,67.88l252.47,140,.39.21-2.35,18.88,30-17.87,12.22-7.16Z"/><path class="cls-17" d="M142,280.52l-20.31,11.91-2.07,15.74,20.3-11.9Z"/><path class="cls-17" d="M326,294.85l-7.93,63.79,1.79,1,.39.22-2.35,18.88,42.25-25c6.71-4,11.81-11.44,14.13-21.64l9.27-70.59L326,294.85Z"/><path class="cls-18" d="M341.79,282.84C345,257,330.89,226.61,310.31,215L57.83,75c-20.58-11.66-39.9-.16-43.1,25.65l-8.84,69c-3.21,25.81,10.9,56.23,31.48,67.88l65,37.43c-8,26.85-20.06,36.59-32.83,42.25,30.15,3.05,52.17-4.45,64.8-24.15l155.53,84.41c20.58,11.66,39.9.17,43.11-25.65Z"/><path class="cls-19" d="M115.06,184.05c7.82,4.52,13.11,16.19,11.81,26.06s-8.7,14.2-16.51,9.68-13.11-16.19-11.81-26S107.25,179.54,115.06,184.05Z"/><path class="cls-19" d="M177.09,219.88c7.81,4.52,13.1,16.19,11.81,26.05s-8.7,14.2-16.52,9.69-13.1-16.19-11.81-26.05S169.27,215.37,177.09,219.88Z"/><path class="cls-19" d="M241.08,256.86c7.81,4.51,13.1,16.18,11.81,26s-8.7,14.2-16.52,9.69-13.11-16.19-11.81-26S233.26,252.34,241.08,256.86Z"/><path class="cls-20" d="M512.08,555.12,102.27,318.75l-5.2,39.86c-.94,7.2,3,15.76,8.83,19.11L494.66,602c5.81,3.35,11.29.23,12.23-7Z"/><g id="mouse1"><path class="cls-2" d="M415.28,766.1c0-8.62-50.95-37.51-84.23-14.34-24.24,16.88-24.73,35.23-23.88,38.85,2.46,10.52,24.13,22.12,32.29,22.79,11.49,1,20.45-6.08,36.48-15.24C395.48,787,415.28,775,415.28,766.1Z"/><path class="cls-6" d="M417.21,754.11c0-8.93-52.77-38.84-87.24-14.85-25.1,17.48-25.62,36.48-24.74,40.24,2.55,10.89,25,22.91,33.44,23.61,11.91,1,21.19-6.3,37.79-15.79,20.24-11.56,40.75-24,40.75-33.21Z"/><g class="cls-21"><path class="cls-22" d="M358.33,765c-17.95,11-16.07,37.81-8.5,36.24,53.28-11,67.7-44.6,67.38-44.18C407.71,769.62,377.43,753.29,358.33,765Z"/></g><path class="cls-9" d="M360.78,730.14c-10.67.05-21.42,2.58-30.81,9.12-25.1,17.48-25.61,36.48-24.73,40.24,2.55,10.89,25,22.91,33.44,23.6,11.9,1,21.19-6.3,37.79-15.78,20.23-11.57,40.74-24,40.74-33.21-16.13-9.38-21.31,7.28-56.1-12.9a27.08,27.08,0,0,1-3.83-3.16c-1.44-2.88,0-6.18,3.5-7.91Z"/><g class="cls-23"><path class="cls-24" d="M358.33,765c-17.95,11-16.07,37.81-8.5,36.24,53.28-11,67.7-44.6,67.38-44.18C407.71,769.62,377.43,753.29,358.33,765Z"/></g><path class="cls-25" d="M391.24,733a10.54,10.54,0,0,0-5.28-1.23,20.63,20.63,0,0,0-12.71,5h0l-.48.42h0L376,739l.48-.42L394,736.73a5.36,5.36,0,0,0-.28-1l.84.48v-1.33L391.24,733Z"/><path class="cls-26" d="M382.34,735.24l-3.44-2a22.69,22.69,0,0,0-5.65,3.47l-.48.41L376,739l.47-.42,5.85-.63Z"/><path class="cls-27" d="M389.2,733.6A20.78,20.78,0,0,0,376,739s21.19-.41,21.24-.42c-.52-3-3.5-5-8.05-5Z"/></g><path class="cls-2" d="M231.76,769.81c-2.29,1.33-5.76,1.47-7.74.33L1.48,641.66c-2-1.15-1.73-3.15.56-4.48L110.4,574.62c2.29-1.32,5.76-1.47,7.75-.33L340.68,702.78c2,1.14,1.74,3.15-.55,4.47Z"/><path class="cls-9" d="M8.51,625.08l101.75-58.75c2.29-1.33,5.76-1.47,7.75-.32L333.15,690.22l8.73-5.05v11.26h0A3.18,3.18,0,0,1,340,699L231.62,761.52c-2.29,1.33-5.76,1.47-7.74.33L1.34,633.37a2.31,2.31,0,0,1-1.34-2H0V620.17l8.51,4.91Z"/><path class="cls-8" d="M341.88,685.45v11A3.17,3.17,0,0,1,340,699L231.62,761.53a8.84,8.84,0,0,1-3.87,1.07V751.35l114.13-65.9Z"/><path class="cls-28" d="M231.62,750.27c-2.29,1.32-5.76,1.46-7.74.32L1.34,622.11c-2-1.15-1.74-3.15.56-4.47l108.36-62.57c2.29-1.32,5.76-1.47,7.75-.32L340.54,683.23c2,1.14,1.74,3.15-.56,4.47Z"/><path class="cls-29" d="M231.76,746a8.32,8.32,0,0,1-7.49.31L5.09,619.8c-1.91-1.11-1.67-3,.54-4.32L110.4,555a8.32,8.32,0,0,1,7.49-.31L337.07,681.22c1.91,1.11,1.67,3-.54,4.32Z"/><path class="cls-27" d="M254.1,650.32l-11.41,6.58L254.91,664l11.4-6.58Z"/><path class="cls-27" d="M216.75,671.89l-11.4,6.58,12.21,7.06,11.4-6.59Z"/><path class="cls-27" d="M246.06,667.14l-11.4,6.59,12.21,7,11.41-6.59Z"/><path class="cls-27" d="M188.57,677.08l-11.41,6.58L200,696.82l11.4-6.58Z"/><path class="cls-27" d="M178.74,693.83l-11.41,6.58,12.21,7.05L191,700.88Z"/><path class="cls-27" d="M177.62,606.15l-11.41,6.58,12.22,7.06,11.4-6.59Z"/><path class="cls-27" d="M140.26,627.72l-11.41,6.59,12.22,7.05,11.4-6.59Z"/><path class="cls-27" d="M169.57,623l-11.4,6.59,12.21,7,11.4-6.59Z"/><path class="cls-27" d="M112.08,632.92l-11.41,6.59,12.21,7L124.29,640Z"/><path class="cls-27" d="M102.24,649.67l-11.4,6.59,68,39.24,11.4-6.58Z"/><path class="cls-27" d="M139.11,583.92l-11.4,6.58,12.2,7L151.32,591Z"/><path class="cls-27" d="M131.07,600.75l-11.4,6.59,12.21,7,11.41-6.59Z"/><path class="cls-27" d="M63.74,627.44,52.34,634l12.21,7L76,634.49Z"/><path class="cls-27" d="M292,672.21l-11.4,6.58,12.21,7.05,11.4-6.58Z"/><path class="cls-27" d="M266.47,678.93l-11.4,6.58,19.17,11.07,11.4-6.58Z"/><path class="cls-27" d="M236.08,704.51l-11.41,6.58,12.21,7,11.41-6.58Z"/><path class="cls-27" d="M216.66,715.72l-11.41,6.58,12.22,7.05,11.4-6.58Z"/><path class="cls-27" d="M215.54,628.05l-11.4,6.59,12.21,7.05,11.4-6.59Z"/><path class="cls-27" d="M178.18,649.61l-11.4,6.59,12.21,7,11.4-6.59Z"/><path class="cls-27" d="M207.49,644.87l-11.4,6.59,12.21,7,11.41-6.59Z"/><path class="cls-27" d="M150,654.81l-11.4,6.59,12.21,7.05,11.4-6.59Z"/><path class="cls-27" d="M120.09,573l-11.41,6.58,12.22,7.05L132.3,580Z"/><path class="cls-27" d="M82.74,594.52l-11.4,6.58,31.14,18,11.4-6.58Z"/><path class="cls-27" d="M101.5,583.67l-11.4,6.59,22.18,12.8,11.4-6.58Z"/><path class="cls-27" d="M64.15,605.25l-11.41,6.58,21.64,12.49,11.4-6.58L64.15,605.25Z"/><path class="cls-27" d="M44.73,616.45,33.32,623l12.21,7.05,11.41-6.58Z"/><path class="cls-27" d="M273,661.23l-11.4,6.59,12.21,7,11.4-6.58Z"/><path class="cls-27" d="M266.88,700.83l-31.22-18-11.41,6.58,31.23,18Z"/><path class="cls-27" d="M217.07,693.53l-11.4,6.59,12.21,7,11.4-6.58Z"/><path class="cls-27" d="M197.64,704.74l-11.41,6.59,12.22,7,11.4-6.58Z"/><path class="cls-27" d="M196.52,617.07l-11.4,6.58,12.21,7.05,11.4-6.58Z"/><path class="cls-27" d="M159.16,638.64l-11.4,6.58,12.21,7,11.4-6.58Z"/><path class="cls-27" d="M188.47,633.89l-11.4,6.58,12.21,7,11.41-6.58Z"/><path class="cls-27" d="M131,643.83l-11.4,6.58,12.21,7.05,11.4-6.58Z"/><path class="cls-27" d="M158,594.84l-11.4,6.58,12.21,7.05,11.4-6.58Z"/><path class="cls-27" d="M120.65,616.41,109.25,623l12.21,7,11.4-6.58Z"/><path class="cls-27" d="M150,611.66l-11.4,6.58,12.21,7,11.41-6.58Z"/><path class="cls-27" d="M92.48,621.61l-11.4,6.58,12.21,7,11.4-6.58Z"/><path class="cls-27" d="M82.65,638.36l-11.41,6.58,12.22,7,11.4-6.58Z"/><path class="cls-27" d="M234.44,639,223,645.55l12.21,7.05,11.4-6.58Z"/><path class="cls-27" d="M197.08,660.53l-11.4,6.58,12.21,7,11.41-6.58Z"/><path class="cls-27" d="M226.4,655.79,215,662.37l12.21,7,11.41-6.58Z"/><path class="cls-27" d="M168.9,665.73l-11.4,6.58,12.21,7.05,11.4-6.58Z"/></g></g></g></svg>