<svg xmlns="http://www.w3.org/2000/svg" xmlns:xlink="http://www.w3.org/1999/xlink" viewBox="0 0 775.18 633.48"><defs><style>.cls-1{fill:none;}.cls-2{fill:#d6dbe8;}.cls-3{fill:#dbdbfa;}.cls-4{fill:#cacaf8;}.cls-5{fill:#f0f0fd;}.cls-6{fill:#b7c4ee;}.cls-7{fill:#9eb0de;}.cls-8{fill:#5877c6;}.cls-9{clip-path:url(#clip-path);}.cls-10{fill:#f3f3fd;}.cls-11{fill:#acbbeb;}.cls-12{fill:#c69eff;}.cls-13{fill:#b988ff;}.cls-14{fill:#af77ff;}.cls-15{fill:#9850ff;}.cls-16{clip-path:url(#clip-path-2);}.cls-17{fill:#fff;}.cls-18{fill:#f7f2ff;}.cls-19{fill:#1b7cff;}.cls-20{fill:#046fff;}.cls-21{fill:#4e99ff;}.cls-22{fill:#a86bff;}.cls-23{clip-path:url(#clip-path-3);}.cls-24{fill:#a363ff;}.cls-25{clip-path:url(#clip-path-4);}.cls-26{fill:#fcb9c8;}.cls-27{fill:#f96a89;}.cls-28{fill:#db0937;}</style><clipPath id="clip-path"><path class="cls-1" d="M119.27.7c2-1.1,4.65-.94,7.58.76L517.48,228.12c5.84,3.39,10.45,11.59,10.3,18.3l-7.22,317.65c-.07,3.34-1.32,5.69-3.26,6.78h0a4.39,4.39,0,0,1-.53.27l-10.68,5.24-.65-8.75L119.08,343.44c-5.84-3.39-10.45-11.59-10.3-18.31l7.11-313L108.54,6,119.27.7Z"/></clipPath><clipPath id="clip-path-2"><path class="cls-1" d="M420.11,440.58c-39.86-23-72.21-4.32-72.21,41.69s32.35,102.06,72.21,125.07,72.2,4.32,72.2-41.69S460,463.59,420.11,440.58Z"/></clipPath><clipPath id="clip-path-3"><path class="cls-1" d="M394.89,505.2c-10.74-6.21-19.47-1.17-19.47,11.24s8.73,27.52,19.47,33.72,19.48,1.17,19.48-11.24-8.73-27.52-19.48-33.72Z"/></clipPath><clipPath id="clip-path-4"><path class="cls-1" d="M392.15,518.42c-5.19-3-9.4-.57-9.4,5.42s4.21,13.29,9.4,16.29,9.4.56,9.4-5.43S397.33,521.41,392.15,518.42Z"/></clipPath></defs><title>laptop</title><g id="Layer_2" data-name="Layer 2"><g id="Layer_1-2" data-name="Layer 1"><g id="laptop"><path class="cls-2" d="M524.13,602.5c-5.22,3-13.12,3.33-17.64.73L150.73,397.82c-4.52-2.6-3.95-7.17,1.26-10.18L398.73,245.19c5.21-3,13.11-3.34,17.63-.73l355.77,205.4c4.51,2.61,4,7.17-1.27,10.18Z"/><path class="cls-3" d="M131.33,360.34c-.13,2,1,3.86,3.39,5.25L504.79,579.25c5,2.9,13.84,2.54,19.66-.82l245.88-142c3.29-1.9,4.93-4.36,4.8-6.66h0V416.07l-9.31,5.38v.25L401.67,211.46c-5-2.9-13.84-2.54-19.65.82L140.34,351.81l-9-5.21v13.74Z"/><path class="cls-4" d="M760.17,418.44,527,553.07V577L770.33,436.46c3.29-1.9,4.93-4.35,4.8-6.66V416.07l-9.31,5.38v.24Z"/><path class="cls-5" d="M523.94,565c-5.22,3-13.12,3.35-17.64.74L134.37,351c-4.52-2.61-4-7.17,1.26-10.19L382.55,198.24c5.22-3,13.13-3.34,17.65-.73L772.13,412.24c4.52,2.61,4,7.18-1.27,10.19L523.94,565Z"/><path class="cls-6" d="M522.9,562.06c-5.17,3-13,3.31-17.5.72l-369-213c-4.48-2.59-3.92-7.12,1.26-10.11l245-141.43c5.17-3,13-3.32,17.5-.73l369,213c4.48,2.59,3.92,7.12-1.26,10.11Z"/><path class="cls-7" d="M373.93,261.23c3-1.73,7.53-1.92,10.12-.42L674.94,428.75c2.6,1.51,2.27,4.12-.72,5.85L532.56,516.38c-3,1.73-7.53,1.92-10.12.42L231.55,348.86c-2.59-1.5-2.27-4.12.73-5.85Z"/><path class="cls-8" d="M331.77,392l16.61-9.6-17.79-10.27L314,381.73,331.77,392Z"/><path class="cls-8" d="M386.19,360.59,402.8,351,385,340.72l-16.61,9.6Z"/><path class="cls-8" d="M358.84,376.37l16.62-9.59-17.79-10.27-16.62,9.59Z"/><path class="cls-8" d="M413.27,344.94l16.61-9.59-17.79-10.27-16.61,9.59Z"/><path class="cls-8" d="M441.56,328.62l16.61-9.6-17.79-10.27-16.61,9.6,17.79,10.27Z"/><path class="cls-8" d="M443.2,456.35l16.61-9.6L442,436.48l-16.61,9.59Z"/><path class="cls-8" d="M497.62,424.92l16.62-9.6-17.8-10.27-16.61,9.6,17.79,10.27Z"/><path class="cls-8" d="M470.28,440.7l16.61-9.59L469.1,420.84l-16.61,9.59,17.79,10.27Z"/><path class="cls-8" d="M524.7,409.28l16.61-9.59-17.78-10.27L506.91,399Z"/><path class="cls-8" d="M553,393l16.61-9.59-99-57.18L454,335.77Z"/><path class="cls-8" d="M499.29,488.73l16.62-9.59-17.79-10.27-16.62,9.59,17.79,10.27Z"/><path class="cls-8" d="M553.71,457.31l16.62-9.59-17.79-10.27L535.92,447Z"/><path class="cls-8" d="M526.37,473.1,543,463.51l-17.79-10.28-16.61,9.6Z"/><path class="cls-8" d="M580.79,441.67l16.62-9.59-17.79-10.27L563,431.4Z"/><path class="cls-8" d="M609.09,425.34l16.61-9.59-17.79-10.27-16.61,9.59Z"/><path class="cls-8" d="M276.52,360.11l16.61-9.6-17.79-10.27-16.61,9.59Z"/><path class="cls-8" d="M330.94,328.69l16.62-9.59-17.79-10.27-16.62,9.59Z"/><path class="cls-8" d="M303.6,344.47l16.61-9.59-17.79-10.27-16.61,9.59,17.79,10.27Z"/><path class="cls-8" d="M358,313.05l16.62-9.59-17.8-10.27-16.61,9.6L358,313.05Z"/><path class="cls-8" d="M386.32,296.72l16.61-9.59-17.79-10.28-16.61,9.6Z"/><path class="cls-8" d="M388,424.45l16.62-9.59-17.79-10.28-16.62,9.6Z"/><path class="cls-8" d="M442.38,393,459,383.44,441.2,373.17l-16.61,9.59Z"/><path class="cls-8" d="M415,408.82l16.62-9.6L413.86,389l-16.62,9.59Z"/><path class="cls-8" d="M469.46,377.38l16.61-9.59-17.79-10.27-16.61,9.59Z"/><path class="cls-8" d="M527,504.72l16.61-9.59-17.79-10.27-16.61,9.59Z"/><path class="cls-8" d="M581.42,473.29,598,463.7l-17.79-10.27L563.63,463Z"/><path class="cls-8" d="M554.08,489.09l16.61-9.59L552.9,469.23l-16.61,9.59,17.79,10.27Z"/><path class="cls-8" d="M608.5,457.66l16.61-9.59L607.32,437.8l-16.61,9.59,17.79,10.27Z"/><path class="cls-8" d="M636.79,441.33l16.62-9.6-17.8-10.27L619,431.06Z"/><path class="cls-8" d="M304.22,376.1l16.62-9.59-17.79-10.27-16.62,9.59Z"/><path class="cls-8" d="M358.65,344.68l16.61-9.59-17.79-10.27-16.61,9.59Z"/><path class="cls-8" d="M331.3,360.47l16.62-9.59-17.79-10.27-16.62,9.59Z"/><path class="cls-8" d="M385.72,329.05l16.62-9.59-17.79-10.27-16.61,9.59Z"/><path class="cls-8" d="M414,312.72l16.61-9.59-17.79-10.28-16.61,9.59Z"/><path class="cls-8" d="M415.66,440.44l16.61-9.59-17.79-10.27-16.61,9.59,17.79,10.27Z"/><path class="cls-8" d="M470.08,409l16.62-9.59-17.8-10.27-16.61,9.59Z"/><path class="cls-8" d="M442.74,424.81l16.61-9.59L441.56,405,425,414.54Z"/><path class="cls-8" d="M497.16,393.38l16.61-9.59L496,373.52l-16.61,9.59Z"/><path class="cls-8" d="M471.75,472.83l16.62-9.6L470.57,453,454,462.55Z"/><path class="cls-8" d="M526.18,441.41l16.61-9.59L525,421.54l-16.62,9.6Z"/><path class="cls-8" d="M498.83,457.19l16.61-9.59-17.79-10.27L481,446.92Z"/><path class="cls-8" d="M553.25,425.76l16.62-9.59L552.08,405.9l-16.62,9.59Z"/><path class="cls-8" d="M581.55,409.44l16.61-9.6-17.79-10.26-16.61,9.59Z"/><path class="cls-8" d="M360.41,408.55,377,399l-17.79-10.27-16.62,9.59,17.79,10.28Z"/><path class="cls-8" d="M414.84,377.13l16.61-9.6-17.79-10.27-16.61,9.59Z"/><path class="cls-8" d="M387.49,392.91l16.62-9.59-17.79-10.27-16.62,9.59,17.79,10.27Z"/><path class="cls-8" d="M441.91,361.49l16.62-9.59-17.79-10.27-16.61,9.59,17.78,10.27Z"/><path class="cls-3" d="M119.27.7c2-1.1,4.65-.94,7.58.76L517.48,228.12c5.84,3.39,10.45,11.59,10.3,18.3l-7.22,317.65c-.07,3.34-1.32,5.69-3.26,6.78h0a4.39,4.39,0,0,1-.53.27l-10.68,5.24-.65-8.75L119.08,343.44c-5.84-3.39-10.45-11.59-10.3-18.31l7.11-313L108.54,6,119.27.7Z"/><g class="cls-9"><path class="cls-4" d="M529.88,252.22,512.5,258.5l-6.43,317.73L523.45,570Z"/></g><path class="cls-4" d="M527.63,253l-7.07,311c-.07,3.34-1.32,5.69-3.26,6.79l-10.14,5-1.09.4,6.43-317.74L527.63,253Z"/><path class="cls-10" d="M516.56,251.92c.15-6.71-3.86-14.56-8.95-17.51L114.28,6.18c-5.09-2.95-9.35.1-9.5,6.81L97.56,330.64c-.15,6.71,3.86,14.56,9,17.52L499.85,576.39c5.09,3,9.34-.11,9.49-6.82Z"/><path class="cls-6" d="M512.87,252.73c.16-6.66-3.82-14.44-8.86-17.36L114.13,9.14c-5-2.93-9.27.1-9.42,6.75L97.56,330.75c-.15,6.65,3.82,14.43,8.87,17.36L496.31,574.33c5,2.93,9.26-.09,9.41-6.75Z"/><path class="cls-11" d="M455.11,550.43l41.2,23.91c5,2.92,9.26-.1,9.41-6.76l3.86-170a132.06,132.06,0,0,0-17-11.76c-47-27.11-85.23-5.32-85.35,48.74C407.13,473.31,426.69,518.18,455.11,550.43Z"/><path class="cls-8" d="M314,311.3c-4.25-2.66-7.5-9-7.06-13.85.35-3.94,3.75-5.76,7.27-3.81a14.35,14.35,0,0,1,5.1,5.19c.65,1.06,1.68,1.17,1.72.16l.77-19.81-17.12-10.72c-1.11-.69-1.66-2.61-.9-3.12,1.22-.81,2-2.43,2-4.7a16.31,16.31,0,0,0-6.52-12.29c-4.06-2.72-7.54-1-7.73,3.69a14.43,14.43,0,0,0,1.56,6.6c.69,1.42,0,2.55-1.11,1.86l-17.1-10.7L273,300.25a7.65,7.65,0,0,0,3.61,6.77l43.14,27,.77-19.81c0-1-.94-2.16-1.63-1.94a5.79,5.79,0,0,1-4.81-1Z"/><path class="cls-12" d="M394.58,400.26c15.57-9.94,37.6-9,62,5,47,27.11,84.95,92.9,84.77,147,0,26.86-9.54,45.75-24.87,54.6h0l-36.16,20.88V610.92a90.38,90.38,0,0,1-24.25-10C409,573.87,371,508,371.2,454a90.25,90.25,0,0,1,3.14-24.37L359,420.79l35.57-20.54Z"/><path class="cls-13" d="M533.22,505.45c5.24,15.81,8.15,31.79,8.1,46.88,0,26.85-9.54,45.75-24.87,54.6h0L480.29,627.8V610.91c-1.19-.28-2.39-.59-3.6-.94V538.09l56.53-32.64Z"/><path class="cls-14" d="M335.05,474.9c-.17,54,37.83,119.83,84.83,146.9s85.2,5.32,85.29-48.6c.18-54.15-37.78-119.93-84.78-147.05S335.17,420.83,335.05,474.9Z"/><path class="cls-15" d="M420.11,440.58c-39.86-23-72.21-4.32-72.21,41.69s32.35,102.06,72.21,125.07,72.2,4.32,72.2-41.69S460,463.59,420.11,440.58Z"/><g class="cls-16"><path class="cls-17" d="M425.23,437.63c-39.86-23-72.21-4.33-72.21,41.69s32.35,102.05,72.21,125.06,72.2,4.33,72.2-41.69S465.08,460.64,425.23,437.63Z"/><path class="cls-18" d="M403.79,429l-46.6,80.71c7.88,30.06,26.22,60.44,49.05,80.8l63.33-109.69c-12.24-18.09-27.64-33.54-44.34-43.19A75.24,75.24,0,0,0,403.79,429Zm-49.15,68.91,40.46-70.08C370.28,426.69,353,445.71,353,479.32A112.49,112.49,0,0,0,354.64,497.91Z"/><path class="cls-12" d="M427.89,585.91l-9.1-5.25v17.57l9.1,5.26Z"/><path class="cls-12" d="M427.89,451.43l-9.1-5.25v17.58l9.1,5.25Z"/><path class="cls-12" d="M474,559.31v-10.5l15.23,8.79v10.5Z"/><path class="cls-12" d="M357.5,492.07V481.56l15.22,8.79v10.51Z"/></g><path class="cls-19" d="M427.58,417.86,415,425.14V545.51l12.61-7.28Z"/><path class="cls-19" d="M418.26,361l-12.62,7.28,23.05,64.79,12.61-7.28Z"/><path class="cls-19" d="M349.73,482.26,342,486.75l33,19.08,7.78-4.49-33-19.08Z"/><path class="cls-20" d="M349.73,472.49,342,477v9.78l7.77-4.49Z"/><path class="cls-20" d="M349.73,495.55,342,500v9.77l7.77-4.49Z"/><path class="cls-19" d="M322.24,473l-7.78,4.49L342,477l7.77-4.49Z"/><path class="cls-21" d="M396.32,414.38V534.74L415,545.51V425.15l13.72,7.92-23.05-64.79-23,38.18,13.72,7.92Z"/><path class="cls-21" d="M342,500l44.55,25.72V512.47L342,486.75V477l-27.5.54L342,509.8V500Z"/><path class="cls-12" d="M388,494.33c4.2-2.68,10.14-2.44,16.71,1.35,12.68,7.31,22.91,25.06,22.86,39.66,0,7.24-2.57,12.34-6.71,14.72h0l-9.75,5.63v-4.55a24.22,24.22,0,0,1-6.54-2.7c-12.67-7.3-22.92-25.06-22.88-39.61a24.47,24.47,0,0,1,.85-6.58l-4.14-2.39,9.59-5.54Z"/><path class="cls-22" d="M425.4,522.68a40.17,40.17,0,0,1,2.18,12.65c0,7.24-2.57,12.34-6.71,14.72l-9.74,5.63v-4.55c-.33-.08-.65-.16-1-.26V531.49Z"/><path class="cls-14" d="M372,514.45c0,14.56,10.21,32.32,22.88,39.62s23,1.43,23-13.11S407.64,508.62,395,501.31s-23-1.44-23,13.14Z"/><path class="cls-15" d="M394.89,505.2c-10.74-6.21-19.47-1.17-19.47,11.24s8.73,27.52,19.47,33.72,19.48,1.17,19.48-11.24-8.73-27.52-19.48-33.72Z"/><g class="cls-23"><path class="cls-24" d="M396.27,504.41c-10.74-6.21-19.47-1.17-19.47,11.24s8.73,27.52,19.47,33.73,19.48,1.16,19.48-11.25-8.73-27.52-19.48-33.72Z"/></g><path class="cls-15" d="M387.5,519.18c0,7,1.86,18.17,2.95,26.43,3.06,3.37,11.47,7.54,15.77,6.75,4.93-.91,7.72-5,8.17-11.46-1.8-5.09-5.77-15-8-19.86a22.54,22.54,0,0,0-7.8-8.21c-6.11-3.52-11.09-.69-11.11,6.35Z"/><path class="cls-12" d="M388.82,513.17c2-1.3,4.9-1.18,8.07.65,6.12,3.53,11.06,12.1,11,19.15,0,3.49-1.24,5.95-3.24,7.1h0L400,542.79v-2.2a11.53,11.53,0,0,1-3.15-1.29c-6.12-3.53-11.07-12.1-11.05-19.13a11.77,11.77,0,0,1,.41-3.17l-2-1.16,4.63-2.67Z"/><path class="cls-22" d="M406.87,526.86a19.4,19.4,0,0,1,1.06,6.11c0,3.49-1.24,5.95-3.24,7.1L400,542.79v-2.2l-.46-.12v-9.36Z"/><path class="cls-14" d="M381.07,522.89c0,7,4.93,15.6,11.05,19.12s11.09.69,11.1-6.33-4.92-15.61-11-19.14-11.09-.69-11.11,6.35Z"/><path class="cls-15" d="M392.15,518.42c-5.19-3-9.4-.57-9.4,5.42s4.21,13.29,9.4,16.29,9.4.56,9.4-5.43S397.33,521.41,392.15,518.42Z"/><g class="cls-25"><path class="cls-24" d="M392.82,518c-5.19-3-9.41-.56-9.41,5.43s4.22,13.28,9.41,16.28,9.39.56,9.39-5.43S398,521,392.82,518Z"/></g><path class="cls-2" d="M99.39,398.45,61.84,420.16l37.56,21.7L137,420.14Z"/><path class="cls-2" d="M37.55,362.75,0,384.47l37.56,21.68,37.55-21.71Z"/><path class="cls-26" d="M37.59,264.33,0,286l37.56,21.69L75.14,286,37.59,264.34Z"/><path class="cls-27" d="M0,367.26,37.57,389V307.72L0,286Z"/><path class="cls-28" d="M37.57,389l37.58-21.69V286l-37.58,21.7Z"/><path class="cls-17" d="M37.59,305.69,0,286.05l37.56,21.69L75.14,286,37.59,305.69Z"/><path class="cls-26" d="M99.42,235.15,61.87,256.86l37.56,21.7L137,256.85l-37.56-21.7Z"/><path class="cls-27" d="M61.84,400.2l37.57,21.7V278.54L61.84,256.85Z"/><path class="cls-28" d="M99.41,421.9,137,400.21V256.85L99.41,278.54Z"/><path class="cls-26" d="M161.16,212.57l-37.55,21.71L161.17,256l37.55-21.71Z"/><path class="cls-2" d="M161.16,434.12l-37.55,21.71,37.56,21.69,37.55-21.71Z"/><path class="cls-17" d="M99.42,276.51,61.87,256.86l37.56,21.7L137,256.85,99.42,276.51Z"/><path class="cls-17" d="M161.16,253.93l-37.55-19.65L161.17,256l37.55-21.71Z"/><path class="cls-27" d="M123.58,434.13l37.58,21.69V256l-37.58-21.69Z"/><path class="cls-28" d="M161.15,455.81l37.57-21.69V234.25L161.15,256Z"/></g></g></g></svg>