<svg xmlns="http://www.w3.org/2000/svg" viewBox="0 0 699.24 594.21"><defs><style>.cls-1{fill:#d6dbe8;}.cls-2{fill:#a8a8f6;}.cls-3{fill:#ccccfa;}.cls-4{fill:#dedefc;}.cls-5{fill:#221f64;}.cls-6{fill:#d0e7ff;}</style></defs><title>Asset 19</title><g id="Layer_2" data-name="Layer 2"><g id="Layer_1-2" data-name="Layer 1"><path class="cls-1" d="M308.44,590.67c7.42,4.28,18.66,4.75,25.08,1L694.91,383.07c6.42-3.71,5.61-10.21-1.81-14.49L390.81,194.05c-7.42-4.28-18.66-4.75-25.09-1L4.34,401.65c-6.43,3.72-5.62,10.2,1.8,14.49l302.3,174.53Z"/><path class="cls-2" d="M699.22,325.49c.19,2.79-1.39,5.48-4.82,7.45L335.67,540.06c-7.16,4.14-19.68,3.62-27.95-1.15L6.89,365.22c-4.69-2.7-7-6.2-6.83-9.47h0V336.23l13.25,7.64v.35L363.62,142c7.16-4.14,19.68-3.61,27.95,1.16L686.41,313.35l12.83-7.4v19.53Z"/><path class="cls-3" d="M308.44,519.78c7.42,4.28,18.66,4.75,25.08,1L694.91,312.17c6.42-3.71,5.61-10.2-1.81-14.48L390.81,123.16c-7.42-4.29-18.66-4.75-25.09-1L4.34,330.76c-6.43,3.71-5.62,10.2,1.8,14.49l302.3,174.53Z"/><path class="cls-2" d="M699.22,265c.19,2.8-1.39,5.48-4.82,7.46L335.67,479.59c-7.16,4.14-19.68,3.61-27.95-1.16L6.89,304.75c-4.69-2.7-7-6.2-6.83-9.47h0V275.75l13.25,7.65v.35L363.62,81.5c7.16-4.14,19.68-3.62,27.95,1.15L686.41,252.88l12.83-7.4V265Z"/><path class="cls-3" d="M308.44,459.31c7.42,4.28,18.66,4.75,25.08,1L694.91,251.7c6.42-3.71,5.61-10.2-1.81-14.48L390.81,62.69c-7.42-4.29-18.66-4.76-25.09-1L4.34,270.29c-6.43,3.71-5.62,10.2,1.8,14.49l302.3,174.53Z"/><path class="cls-2" d="M699.22,205.87c.19,2.79-1.39,5.48-4.82,7.46L335.67,420.45c-7.16,4.13-19.68,3.61-27.95-1.16L6.89,245.61c-4.69-2.71-7-6.2-6.83-9.47h0V216.61l13.25,7.65v.35L363.62,22.35c7.16-4.13,19.68-3.61,27.95,1.16L686.41,193.74l12.83-7.4v19.52Z"/><path class="cls-4" d="M308.44,400.17c7.42,4.28,18.66,4.75,25.08,1L694.91,192.56c6.42-3.71,5.61-10.2-1.81-14.48L390.81,3.55c-7.42-4.29-18.66-4.76-25.09-1L4.34,211.15c-6.43,3.71-5.62,10.2,1.8,14.48l302.3,174.54Z"/><path class="cls-5" d="M500.21,159.26a3.87,3.87,0,0,0-1.34-5.37l-75-43.3a3.9,3.9,0,0,0-2.72-.43l-257.08,54a3.85,3.85,0,0,0-1.14,7.1l76.77,44.32a3.81,3.81,0,0,0,2.8.41l35.23-8.18,61.65,35.59-12.82,17.39a3.85,3.85,0,0,0-.67,3.07,3.91,3.91,0,0,0,1.84,2.55l74.7,43.12a3.85,3.85,0,0,0,5.19-1.3l92.58-148.94Zm-8.64-.69L403.06,301l-67.74-39.11,12.82-17.39a3.85,3.85,0,0,0-1.17-5.62l-66.7-38.5a3.83,3.83,0,0,0-2.79-.42l-35.23,8.19-66.73-38.53L421.3,118Zm-89.15,15.22a3.85,3.85,0,0,0-4-6L338.17,183a3.84,3.84,0,0,0-1,7.06l34.09,19.68a3.83,3.83,0,0,0,5-1l26.14-34.93Zm-12.68,4.09-17.57,23.5-22.92-13.24Z"/><path class="cls-6" d="M421.07,105.55l15.85,9.15-13.72,7.92-15.85-9.15Z"/><path class="cls-5" d="M423,102.21a3.84,3.84,0,0,0-3.85,0l-13.72,7.92a3.86,3.86,0,0,0,0,6.67L421.28,126a3.82,3.82,0,0,0,3.84,0L438.85,118a3.85,3.85,0,0,0,0-6.66ZM421.08,110l8.14,4.7-6,3.48-8.15-4.71Z"/><path class="cls-6" d="M496.82,150.33l15.85,9.15-13.73,7.92-15.84-9.15Z"/><path class="cls-5" d="M498.74,147a3.84,3.84,0,0,0-3.85,0l-13.72,7.92a3.85,3.85,0,0,0,0,6.67L497,170.74a3.89,3.89,0,0,0,3.85,0l13.73-7.92a3.86,3.86,0,0,0,0-6.67Zm-1.93,7.78,8.15,4.7-6,3.48-8.15-4.7Z"/><path class="cls-6" d="M404.45,297l15.85,9.15L406.58,314l-15.85-9.15Z"/><path class="cls-5" d="M406.38,293.63a3.89,3.89,0,0,0-3.85,0l-13.72,7.92a3.85,3.85,0,0,0,0,6.67l15.84,9.15a3.86,3.86,0,0,0,3.86,0l13.72-7.92a3.86,3.86,0,0,0,0-6.67Zm-1.92,7.78,8.14,4.7-6,3.48-8.15-4.7Z"/><path class="cls-6" d="M239.07,201.49l15.85,9.14-13.73,7.92-15.84-9.14Z"/><path class="cls-5" d="M241,198.14a3.84,3.84,0,0,0-3.85,0l-13.72,7.93a3.84,3.84,0,0,0,0,6.66l15.84,9.15a3.84,3.84,0,0,0,3.85,0L256.85,214a3.86,3.86,0,0,0,0-6.67Zm-1.92,7.78,8.14,4.71-6,3.47-8.15-4.7Z"/><path class="cls-6" d="M331.57,254.89,347.42,264,333.7,272l-15.85-9.15Z"/><path class="cls-5" d="M333.5,251.54a3.89,3.89,0,0,0-3.85,0l-13.72,7.93a3.85,3.85,0,0,0,0,6.67l15.84,9.14a3.86,3.86,0,0,0,3.86,0l13.71-7.92a3.85,3.85,0,0,0,0-6.67Zm-1.92,7.78,8.14,4.71-6,3.47-8.15-4.7Z"/><path class="cls-6" d="M344.16,232.33,360,241.48l-13.72,7.92-15.84-9.15Z"/><path class="cls-5" d="M346.09,229a3.84,3.84,0,0,0-3.85,0l-13.72,7.92a3.84,3.84,0,0,0,0,6.66l15.84,9.15a3.84,3.84,0,0,0,3.85,0l13.72-7.92a3.85,3.85,0,0,0,0-6.67Zm-1.93,7.77,8.15,4.71-6,3.47-8.14-4.7Z"/><path class="cls-6" d="M394.14,164.66,410,173.8l-13.72,7.93-15.85-9.15Z"/><path class="cls-5" d="M396.07,161.32a3.84,3.84,0,0,0-3.85,0l-13.73,7.92a3.85,3.85,0,0,0,0,6.66l15.85,9.15a3.84,3.84,0,0,0,3.85,0l13.72-7.92a3.86,3.86,0,0,0,0-6.67Zm-1.93,7.77,8.15,4.71-6,3.47-8.14-4.7Z"/><path class="cls-6" d="M375.54,196.88,391.38,206,377.66,214l-15.84-9.14Z"/><path class="cls-5" d="M377.46,193.56a3.84,3.84,0,0,0-3.85,0l-13.72,7.92a3.85,3.85,0,0,0,0,6.67l15.84,9.15a3.89,3.89,0,0,0,3.85,0l13.72-7.93a3.85,3.85,0,0,0,0-6.67Zm-1.93,7.77,8.15,4.71-6,3.48-8.14-4.71Z"/><path class="cls-6" d="M337.29,174.81,353.13,184l-13.72,7.93-15.84-9.15Z"/><path class="cls-5" d="M339.21,171.47a3.84,3.84,0,0,0-3.85,0l-13.73,7.92a3.86,3.86,0,0,0,0,6.67l15.85,9.15a3.89,3.89,0,0,0,3.85,0l13.72-7.93a3.85,3.85,0,0,0,0-6.66Zm-1.93,7.77,8.15,4.71-6,3.48-8.15-4.71Z"/><path class="cls-6" d="M283,197l15.85,9.15-13.72,7.93-15.85-9.16Z"/><path class="cls-5" d="M284.92,193.67a3.89,3.89,0,0,0-3.85,0l-13.72,7.93a3.84,3.84,0,0,0,0,6.66l15.84,9.15a3.86,3.86,0,0,0,3.86,0l13.72-7.92a3.86,3.86,0,0,0,0-6.67ZM283,201.45l8.14,4.71-6,3.47-8.14-4.7Z"/><path class="cls-6" d="M166.19,159.4,182,168.55l-13.73,7.92-15.84-9.15Z"/><path class="cls-5" d="M168.11,156.07a3.84,3.84,0,0,0-3.85,0L150.54,164a3.85,3.85,0,0,0,0,6.67l15.84,9.15a3.84,3.84,0,0,0,3.85,0L184,171.88a3.84,3.84,0,0,0,0-6.66Zm-1.92,7.78,8.14,4.7-6,3.48-8.15-4.7Z"/></g></g></svg>