<svg xmlns="http://www.w3.org/2000/svg" xmlns:xlink="http://www.w3.org/1999/xlink" viewBox="0 0 728.62 785.27"><defs><style>.cls-1{fill:none;}.cls-2{fill:#d6dbe8;}.cls-3{fill:#dbdbfa;}.cls-4{clip-path:url(#clip-path);}.cls-5{fill:#cacaf8;}.cls-6{fill:#e3e3fb;}.cls-7{fill:#2c2982;}.cls-8{fill:#25236d;}.cls-9{fill:#e2e2e2;}.cls-10{fill:#c6c6c6;}.cls-11{fill:#fff;}.cls-12{fill:#fac300;}.cls-13{fill:#5400e9;}.cls-14{clip-path:url(#clip-path-2);}.cls-15{fill:#f0f0fd;}.cls-16{fill:#b7c4ee;}.cls-17{fill:#9eb0de;}.cls-18{fill:#5877c6;}</style><clipPath id="clip-path"><path class="cls-1" d="M334.05.87c2.15-1.25,4.9-1.2,7.73.43L718.55,218.61c5.62,3.25,9.46,11.55,8.55,18.52l-43,330.09c-.45,3.48-2,6-4.12,7.2h0a6.36,6.36,0,0,1-.58.3l-11.59,5.94.31-9.06L295.46,356.68c-5.63-3.25-9.47-11.55-8.56-18.53l42.41-325.3-6.89-6,11.63-6Z"/></clipPath><clipPath id="clip-path-2"><path class="cls-1" d="M0,530.81c-.13,2,1,4,3.5,5.41L385.17,756.57c5.19,3,14.28,2.63,20.27-.84L659,609.32c3.4-2,5.08-4.49,5-6.87h0V588.29l-9.61,5.55v.25L278.83,377.27c-5.2-3-14.28-2.62-20.28.84L9.31,522,0,516.64V530.8Z"/></clipPath></defs><title>Asset 16</title><g id="Layer_2" data-name="Layer 2"><g id="Layer_1-2" data-name="Layer 1"><path class="cls-2" d="M406.77,782.58c-5.63,3.25-14.16,3.61-19,.79L3.54,561.56c-4.88-2.82-4.27-7.75,1.36-11L271.35,396.73c5.64-3.25,14.17-3.61,19-.79L674.59,617.75c4.88,2.82,4.26,7.74-1.37,11Z"/><path class="cls-3" d="M334.05.87c2.15-1.25,4.9-1.2,7.73.43L718.55,218.61c5.62,3.25,9.46,11.55,8.55,18.52l-43,330.09c-.45,3.48-2,6-4.12,7.2h0a6.36,6.36,0,0,1-.58.3l-11.59,5.94.31-9.06L295.46,356.68c-5.63-3.25-9.47-11.55-8.56-18.53l42.41-325.3-6.89-6,11.63-6Z"/><g class="cls-4"><path class="cls-5" d="M728.62,243.05,710,250.36,667.78,580.51l18.6-7.31Z"/></g><path class="cls-6" d="M714.93,243.37c.91-7-2.92-15.28-8.55-18.52L329.61,7.54c-5.63-3.25-10.94-.22-11.85,6.76l-43,330.09c-.91,7,2.92,15.28,8.55,18.52L660.06,580.22c5.63,3.25,10.94.22,11.85-6.76Z"/><path class="cls-7" d="M711.05,244.37c.9-6.92-2.9-15.14-8.48-18.36L329.11,10.61c-5.58-3.22-10.84-.22-11.74,6.7L274.72,344.5c-.9,6.92,2.9,15.14,8.48,18.36l373.46,215.4c5.58,3.22,10.84.21,11.74-6.7Z"/><path class="cls-8" d="M638.62,210.09,414.08,78.67l-36,281.89L602.66,492Z"/><path class="cls-9" d="M622.25,219.56,397.7,88.15,379.22,98.79,603.76,230.21l-36,281.88,18.48-10.65Z"/><path class="cls-10" d="M622.25,219.56l-18.49,10.65-36,281.88,18.48-10.65Z"/><path class="cls-11" d="M603.76,230.21,379.22,98.79l-36,281.89L567.8,512.09Z"/><path class="cls-12" d="M584.87,241.13l-192-112.35L368.66,318.84l192,112.34Z"/><path class="cls-13" d="M497.47,375.43,450.7,247.67l-65.68,62Z"/><path class="cls-13" d="M550.39,399.68l6-47.78L519.55,251.28,481.7,287l34.82,92.88,33.87,19.82Z"/><path class="cls-3" d="M0,530.81c-.13,2,1,4,3.5,5.41L385.17,756.57c5.19,3,14.28,2.63,20.27-.84L659,609.32c3.4-2,5.08-4.49,5-6.87h0V588.29l-9.61,5.55v.25L278.83,377.27c-5.2-3-14.28-2.62-20.28.84L9.31,522,0,516.64V530.8Z"/><g class="cls-14"><path class="cls-5" d="M664.51,581.52,408.05,729.59v24.64L664.51,606.16V581.52Z"/></g><path class="cls-15" d="M404.92,741.86c-5.38,3.11-13.53,3.45-18.19.76L3.15,521.16c-4.67-2.69-4.08-7.4,1.3-10.51l254.65-147c5.39-3.11,13.54-3.45,18.2-.76L660.88,584.33c4.66,2.69,4.08,7.4-1.31,10.51Z"/><path class="cls-16" d="M403.85,738.84c-5.34,3.08-13.43,3.42-18.05.75L5.24,519.87c-4.63-2.67-4.05-7.34,1.29-10.42L259.18,363.58c5.34-3.08,13.43-3.42,18.06-.75L657.8,582.55c4.62,2.67,4,7.34-1.3,10.43L403.85,738.84Z"/><path class="cls-17" d="M445.28,660.51c-3.09,1.78-7.77,2-10.44.43l-300-173.2c-2.67-1.55-2.33-4.25.75-6l146.1-84.35c3.08-1.78,7.76-2,10.44-.43l300,173.21c2.67,1.54,2.34,4.24-.75,6Z"/><path class="cls-18" d="M488.76,525.64l-17.13,9.9L490,546.13l17.13-9.89-18.35-10.6Z"/><path class="cls-18" d="M432.64,558.05l-17.14,9.89,18.35,10.59L451,568.64Z"/><path class="cls-18" d="M460.84,541.77l-17.14,9.89,18.35,10.59,17.13-9.89Z"/><path class="cls-18" d="M404.71,574.17l-17.14,9.89,18.35,10.6,17.14-9.89Z"/><path class="cls-18" d="M375.53,591l-17.14,9.89,18.35,10.59,17.14-9.89Z"/><path class="cls-18" d="M373.84,459.29l-17.13,9.89,18.34,10.6,17.14-9.9-18.35-10.59Z"/><path class="cls-18" d="M317.71,491.7l-17.13,9.89,18.35,10.59,17.13-9.89Z"/><path class="cls-18" d="M345.91,475.41l-17.13,9.9,18.35,10.59L364.26,486Z"/><path class="cls-18" d="M289.78,507.82l-17.13,9.89L291,528.3l17.13-9.89Z"/><path class="cls-18" d="M260.6,524.67l-17.13,9.89,102.13,59,17.14-9.89-102.14-59Z"/><path class="cls-18" d="M316,425.89l-17.13,9.89,18.34,10.6,17.14-9.9Z"/><path class="cls-18" d="M259.86,458.3l-17.13,9.89,18.34,10.59,17.14-9.89Z"/><path class="cls-18" d="M288.06,442l-17.13,9.9,18.34,10.59,17.14-9.89Z"/><path class="cls-18" d="M231.93,474.42l-17.13,9.89,18.35,10.6,17.13-9.9Z"/><path class="cls-18" d="M202.75,491.27l-17.13,9.89L204,511.75l17.13-9.89Z"/><path class="cls-18" d="M545.74,558.54l-17.13,9.89L547,579l17.14-9.89Z"/><path class="cls-18" d="M489.61,590.94l-17.13,9.9,18.35,10.59L508,601.54l-18.35-10.6Z"/><path class="cls-18" d="M517.81,574.66l-17.13,9.89L519,595.15l17.13-9.89-18.35-10.6Z"/><path class="cls-18" d="M461.69,607.07,444.55,617l18.35,10.59L480,617.66Z"/><path class="cls-18" d="M432.5,623.91l-17.13,9.9,18.35,10.59,17.13-9.89Z"/><path class="cls-18" d="M430.81,492.18l-17.13,9.9L432,512.67l17.13-9.89Z"/><path class="cls-18" d="M374.69,524.59l-17.14,9.89,18.35,10.6,17.13-9.9-18.34-10.59Z"/><path class="cls-18" d="M402.89,508.31l-17.14,9.89,18.35,10.59,17.13-9.89-18.34-10.59Z"/><path class="cls-18" d="M346.76,540.71l-17.13,9.9L348,561.2l17.14-9.89Z"/><path class="cls-18" d="M287.42,409.4l-17.14,9.89,18.35,10.59L305.76,420Z"/><path class="cls-18" d="M231.29,441.8l-17.14,9.89,18.35,10.6,17.14-9.9Z"/><path class="cls-18" d="M259.49,425.52l-17.13,9.89L260.7,446l17.14-9.89Z"/><path class="cls-18" d="M203.36,457.92l-17.13,9.9,18.35,10.59,17.13-9.89Z"/><path class="cls-18" d="M174.18,474.77l-17.13,9.89,18.35,10.6,17.13-9.9Z"/><path class="cls-18" d="M517.17,542,500,551.93l18.35,10.6,17.13-9.9Z"/><path class="cls-18" d="M461,574.45l-17.13,9.89,18.34,10.59L479.39,585Z"/><path class="cls-18" d="M489.24,558.17l-17.13,9.89,18.34,10.59,17.14-9.89Z"/><path class="cls-18" d="M433.11,590.57,416,600.46l18.35,10.6,17.13-9.9Z"/><path class="cls-18" d="M403.93,607.42l-17.13,9.89,18.35,10.59L422.28,618Z"/><path class="cls-18" d="M402.24,475.69l-17.13,9.89,18.35,10.59,17.13-9.89Z"/><path class="cls-18" d="M346.12,508.09,329,518l18.35,10.59,17.13-9.89-18.34-10.6Z"/><path class="cls-18" d="M374.32,491.81l-17.14,9.89,18.35,10.6,17.13-9.9Z"/><path class="cls-18" d="M318.19,524.22l-17.14,9.89L319.4,544.7l17.14-9.89Z"/><path class="cls-18" d="M344.39,442.29l-17.13,9.89,18.34,10.59,17.14-9.89Z"/><path class="cls-18" d="M288.27,474.69l-17.14,9.9,18.35,10.59,17.13-9.89-18.34-10.6Z"/><path class="cls-18" d="M316.47,458.41l-17.14,9.9,18.35,10.59L334.81,469Z"/><path class="cls-18" d="M260.34,490.82l-17.14,9.89,18.35,10.59,17.13-9.89-18.34-10.59Z"/><path class="cls-18" d="M231.16,507.67,214,517.56l18.35,10.59,17.14-9.89Z"/><path class="cls-18" d="M459.22,508.59l-17.14,9.89,18.35,10.59,17.14-9.89Z"/><path class="cls-18" d="M403.09,541,386,550.88l18.34,10.59,17.14-9.89Z"/><path class="cls-18" d="M431.29,524.71l-17.13,9.89,18.34,10.59,17.14-9.89Z"/><path class="cls-18" d="M375.16,557.11,358,567l18.35,10.59,17.13-9.89Z"/></g></g></svg>